<?xml version="1.0" encoding="UTF-8"?><svg id="Calque_1" xmlns="http://www.w3.org/2000/svg" viewBox="0 0 995 307"><g><path d="M446.07,179.61v29.72c-17.02,9.03-34.85,13.54-53.5,13.54-24.17,0-43.41-6.67-57.74-20.02-14.32-13.35-21.49-29.8-21.49-49.35s7.55-36.15,22.66-49.79c15.1-13.64,34.84-20.46,59.2-20.46,19.42,0,35.86,4,49.31,11.99v30.31c-16.5-9.29-32.12-13.93-46.87-13.93s-26.33,3.88-35.52,11.64c-9.19,7.76-13.79,17.65-13.79,29.67s4.53,22.06,13.59,29.92c9.06,7.86,20.67,11.79,34.84,11.79,7.02,0,13.77-.93,20.27-2.78,6.5-1.85,16.18-5.93,29.04-12.23Z" fill="#23b5b5"/><path d="M545.27,83.24c23.19,0,41.96,7,56.32,21,14.36,14,21.54,30.29,21.54,48.87s-7.28,35.18-21.83,49.01c-14.55,13.84-33.23,20.76-56.03,20.76s-41.84-6.88-56.32-20.66c-14.49-13.77-21.73-30.14-21.73-49.11s7.19-34.95,21.58-48.92c14.39-13.97,33.21-20.95,56.47-20.95Zm0,111.38c12.86,0,23.22-3.82,31.08-11.45,7.86-7.63,11.79-17.65,11.79-30.06s-3.93-22.51-11.79-30.11c-7.86-7.6-18.22-11.4-31.08-11.4s-23.34,3.8-31.23,11.4c-7.89,7.6-11.84,17.64-11.84,30.11s3.95,22.43,11.84,30.06c7.89,7.63,18.3,11.45,31.23,11.45Z" fill="#23b5b5"/><path d="M647.68,84.99h60.8c13.19,0,23.91,3.81,32.16,11.44,8.25,7.63,12.38,16.86,12.38,27.7,0,15-7.8,26.1-23.39,33.3,6.83,3.11,13.33,11.48,19.49,25.11,6.16,13.63,12.1,26.49,17.83,38.56h-37.21c-2.22-4.48-6.09-13.02-11.61-25.63-5.52-12.6-10.25-20.69-14.18-24.26-3.93-3.57-8.14-5.36-12.62-5.36h-9.74v55.25h-33.91V84.99Zm33.91,24.95v30.99h17.93c5.72,0,10.25-1.35,13.59-4.04,3.35-2.69,5.02-6.54,5.02-11.55,0-10.26-6.46-15.4-19.39-15.4h-17.15Z" fill="#23b5b5"/><path d="M920.62,84.99V221.12h-28.64l-75.14-87.21v87.21h-33.91V84.99h31.1l72.68,83.22V84.99h33.91Z" fill="#23b5b5"/></g><g><path d="M138.43,197.8c-.92-1.95,.56-13,1.2-17.81,2.89-21.66,9.4-62.49,13.39-84.02,.9-4.83,2.95-15.91,4.45-17.62,1.04,.89,2.62,4.2,3.14,5.29,4.83,10.11,13.39,32.37,17.61,45.82,3.93,12.53,3.45,15.53-4.28,26.76-7.7,11.19-22.88,30.16-30.89,37.85-2.83,2.72-4.08,3.56-4.62,3.73Z" fill="#23b5b5"/><path d="M114.68,184.18c-4.43-3.62-8.59-7.53-11.42-10.74-5.27-5.98-6.17-8.19-4.77-20.1,1.41-11.96,4.97-32.9,7.6-44.82,2.53-11.45,3.95-13.73,10.86-17.47,7.31-3.95,20.08-9.12,26.72-10.21,1.9-.31,3-.24,3.58,.23,1.94,1.58,1.03,10.07-.16,19.38-2.46,19.19-8.19,55.16-11.8,74.02-2.06,10.76-3.66,17.2-5.74,18.23-.74,.37-1.87,.12-3.76-.82-2.82-1.4-6.77-4.13-11.12-7.69h0Z" fill="#23b5b5"/><g><path d="M63.21,142.32c-6.71-5.48-12.35-10.47-15.9-14.06-2.68-2.71-5.51-5.74-5.23-7.33,.28-1.56,3.67-3.33,7.29-5.01,10.47-4.85,30.85-12.51,41.93-15.76,3.93-1.15,7.75-2.08,9-1.06s1.06,4.9,.68,8.94c-1.05,11.03-4.67,32.38-7.45,43.92-.94,3.93-2.02,7.64-3.49,8.21-1.49,.58-4.87-1.49-8.3-3.81-4.82-3.26-11.75-8.51-18.53-14.05,0,0,0,0,0,0Z" fill="#23b5b5"/><path d="M99.37,100.24c.3,.35,.7,1.82,.15,7.66-1.05,10.98-4.65,32.23-7.41,43.72-1.38,5.75-2.23,6.97-2.59,7.18-.43,.1-1.92-.24-6.96-3.65-4.79-3.24-11.68-8.46-18.42-13.97-6.67-5.44-12.27-10.4-15.79-13.95-4.01-4.06-4.84-5.53-4.83-6.03,.14-.42,1.16-1.49,6.47-3.95,10.42-4.83,30.7-12.45,41.72-15.68,5.72-1.67,7.25-1.56,7.65-1.33m1.86-2.28c-1.64-1.34-4.8-.84-10.34,.78-11.08,3.24-31.67,10.98-42.13,15.84-10.46,4.85-10.4,6.7-2.49,14.71,3.82,3.87,9.79,9.08,16.02,14.16,6.68,5.45,13.66,10.76,18.63,14.13,9.62,6.51,11.37,5.84,14.04-5.28,2.67-11.12,6.39-32.7,7.48-44.13,.54-5.71,.43-8.88-1.21-10.21h0Z" fill="#23b5b5"/></g><path d="M190.34,139.48c-3.02-2.46-5.14-6.24-7.79-11.92-5.88-12.63-14.55-35.19-17.84-46.41-1.18-4.03-1.31-5.54-1.22-6.09,2.27,.26,11.37,7.33,15.33,10.41,8.06,6.26,20.15,15.95,33.17,26.58,13.28,10.84,25.66,21.13,33.96,28.22,4.12,3.52,12.54,10.71,13.23,12.83-.52,.2-2,.41-6.2,.13-11.18-.74-35.01-4.47-48.98-8.18-6.72-1.79-10.68-3.14-13.65-5.56h0Z" fill="#23b5b5"/><path d="M215.35,109.25c-11.27-9.2-21.74-17.96-28.74-24.05-8.37-7.27-13.17-11.93-13-14.24,.06-.79,.85-1.62,2.55-2.7,5.69-3.61,18.73-8.29,26.86-10.23,7.66-1.83,10.25-1.05,19.74,5.96,4.67,3.44,11.24,8.6,18.03,14.14s13.15,10.94,17.42,14.8c8.61,7.77,9.79,9.98,9.79,18.2,0,9.07-1.86,22.57-4.6,28.2-.94,1.93-1.66,2.8-2.48,2.99-2.29,.54-7.69-3.15-16.26-9.72-7.36-5.64-18.05-14.15-29.31-23.35Z" fill="#23b5b5"/><path d="M242.43,74.49c-6.71-5.47-12.35-10.46-15.91-14.05-2.69-2.72-5.54-5.75-5.26-7.34,.28-1.54,3.61-3.28,7.17-4.94,10.33-4.8,30.47-12.37,41.44-15.57,3.89-1.13,7.66-2.04,8.91-1.02s1.11,4.89,.76,8.91c-.94,10.99-4.33,32.24-6.97,43.73-.9,3.9-1.93,7.58-3.36,8.15-1.46,.57-4.84-1.49-8.26-3.82-4.82-3.26-11.74-8.52-18.51-14.05h0Z" fill="#23b5b5"/><path d="M143.74,202.29c.09-.54,.66-1.88,2.93-5.19,6.52-9.49,21.56-27.91,30.95-37.91,9.09-9.67,12.17-10.83,25.35-9.53,13.18,1.3,36.71,5.23,48.42,8.09,1.31,.32,4.75,1.16,5.85,1.96-1.44,1.79-11.49,5.92-16.43,7.94-19.75,8.11-58.83,22.95-79.62,29.92-5.42,1.82-15.34,5.15-17.46,4.7Z" fill="#23b5b5"/><path d="M161.81,222.42c-4.24-3.47-7.63-6.64-9.52-8.95-1.32-1.6-1.82-2.66-1.63-3.44,.56-2.24,6.59-5.12,16.8-9.32,18.01-7.42,51.45-19.99,70.16-26.37,8.88-3.03,17-5.61,18.94-4.03,.58,.48,.88,1.54,.96,3.47,.28,6.81-2.23,20.33-4.66,28.21-2.28,7.4-4.24,9.26-14.96,14.15-10.43,4.77-30.4,12.67-42.36,16.4-11.49,3.58-13.99,3.5-20.63-.61-3.81-2.36-8.71-5.92-13.11-9.51h0Z" fill="#23b5b5"/><g><path d="M211.84,263.66c-6.71-5.48-12.36-10.47-15.91-14.07-3.43-3.47-5.51-5.92-5.26-7.38,.28-1.57,3.63-3.37,7.2-5.08,10.36-4.94,30.54-12.76,41.53-16.08,3.89-1.18,7.67-2.13,8.91-1.11s1.1,4.93,.75,9.01c-.96,11.11-4.38,32.62-7.05,44.25-.91,3.97-1.95,7.71-3.41,8.29-1.47,.58-4.83-1.48-8.25-3.79-4.82-3.26-11.74-8.51-18.52-14.04h0Z" fill="#23b5b5"/><path d="M247.39,221.08c.3,.35,.72,1.83,.21,7.74-.95,11.06-4.36,32.46-7.02,44.05-1.31,5.69-2.13,6.99-2.52,7.25-.46,.08-1.97-.31-6.89-3.64-4.79-3.24-11.67-8.45-18.41-13.96s-12.28-10.4-15.79-13.96c-4.06-4.11-4.88-5.59-4.85-6.09,.1-.34,.92-1.4,6.39-4.01,10.31-4.92,30.39-12.69,41.32-16,5.63-1.71,7.15-1.6,7.56-1.38m1.86-2.28c-1.64-1.34-4.77-.82-10.27,.84-10.98,3.32-31.38,11.22-41.74,16.16-10.36,4.94-10.28,6.8-2.36,14.82,3.83,3.87,9.79,9.08,16.03,14.17,6.68,5.45,13.66,10.76,18.63,14.12,9.61,6.5,11.34,5.82,13.91-5.39,2.57-11.2,6.09-32.95,7.08-44.45,.5-5.75,.35-8.94-1.28-10.27h0Z" fill="#23b5b5"/></g></g></svg>