<?xml version="1.0" encoding="UTF-8"?><svg id="b" xmlns="http://www.w3.org/2000/svg" viewBox="0 0 547.32 446.28"><g id="c"><g><g><path d="M35.72,187.15l-4.56,17.42c.68-.33,1.36-.66,2.05-.98l2.93-1.4-14.71,57.21-.64,.3c-1.55,.74-3.1,1.49-4.65,2.24l-4.56,17.42c1.18-.57,2.37-1.13,3.55-1.69,6.62-3.14,13.32-6.18,20.04-9.08,1.68-.73,3.36-1.45,5.05-2.16l1.95-8.38,2.08-8.94c-.83,.35-1.66,.71-2.49,1.06l-2.77,1.19,4.67-19.6,.7-.3c5.35-2.3,10.8-4.55,16.22-6.69l2.65-1.05-4.32,19.39-.75,.29c-1.19,.47-2.37,.94-3.56,1.42l-1.97,8.67-1.96,8.65c5.55-2.21,11.16-4.34,16.8-6.39,3.38-1.23,6.77-2.44,10.15-3.61l1.52-7.65,1.9-9.57c-.48,.17-.96,.33-1.44,.5l-2.51,.88,4.56-22.55c-1.15-.96-2.29-1.91-3.43-2.86l-1.2-1,1.04-1.17c1.99-2.24,3.97-4.46,5.95-6.68l5.85-28.95,.18-.89c-2.21-1.9-4.38-3.78-6.52-5.65-16.2,6.07-32.29,12.99-47.85,20.58Zm31.39,19.28l-.75,.29c-5.27,2.08-10.58,4.27-15.78,6.51l-2.77,1.19,4.67-19.6,.7-.3c5.15-2.21,10.39-4.38,15.6-6.43l2.65-1.05-4.32,19.39Z" fill="#ffed00"/><path d="M162.64,160.27l1.07-.22c1.37-.28,2.75-.55,4.12-.81l.6-5.08,1.34-11.44,.08-.67c-9.2,1.8-18.45,3.85-27.53,6.12l-.09,.6-2.53,16.66c.99-.24,1.98-.49,2.96-.72l2.18-.53-7.93,54.27-.99,.24c-6.28,1.52-12.62,3.16-18.84,4.88l-2.28,.63,9.02-54.59,.93-.26c1.4-.39,2.8-.77,4.2-1.14l2.67-16.72,.09-.54c-9.04,2.45-18.11,5.17-27.01,8.09l-.06,.33-2.14,11.14-1.13,5.88c.88-.29,1.76-.57,2.64-.85l2.41-.77-11.89,63.58c.37,.28,.75,.56,1.12,.84,1.83,1.38,3.69,2.77,5.55,4.17,.39,.29,.78,.58,1.17,.88,13.41-3.98,27.12-7.52,40.76-10.55,4.01-4.01,7.98-7.97,11.93-11.9l7.58-61.52Z" fill="#ffed00"/><path d="M200.27,223.86l1.29-17.12c-1.23,.15-2.47,.31-3.7,.47l-1.86,.24,1.48-18.18,1.21-.16c9.03-1.18,18.21-2.15,27.28-2.9l10.65-10.08,1.02-25.87,.31-7.99c-2.91-2.66-5.79-5.3-8.64-7.91-.13-.12-.26-.24-.39-.36-16.68,1.38-33.48,3.56-49.96,6.48l-.06,.54-1.34,12.11-.49,4.4c1.08-.19,2.16-.38,3.23-.56l1.97-.33-5.64,53.72-1.13,.19c-1.46,.25-2.92,.5-4.39,.76l-1.9,17.18c10.27-1.81,20.7-3.36,31.04-4.63Zm18-53.98l-1.28,.13c-5.4,.55-10.87,1.18-16.25,1.88l-1.86,.24,1.48-18.18,1.21-.16c5.33-.69,10.73-1.32,16.06-1.86l1.78-.18-1.15,18.13Z" fill="#ffed00"/><path d="M311.63,220.57l-.27-6.38v-.09s-.86-20.7-.86-20.7c-6.42-.41-12.91-.71-19.34-.91l.17,10.06-1.58-.04c-5.78-.16-11.63-.23-17.41-.22h-1.52s.03-18.04,.03-18.04h1.51c6.62-.02,13.34,.08,19.96,.3l-.38-17.09c-6.49-.21-13.04-.31-19.55-.29h-1.52s.02-18.04,.02-18.04h1.51c5.5-.02,11.08,.05,16.56,.21l1.45,.04,.18,10.06c6.16,.18,12.38,.47,18.53,.86l-1.13-27.11v-.06c-19.99-1.27-40.25-1.42-60.25-.47v.43s-.47,14.26-.47,14.26l-.08,2.41c1.26-.06,2.52-.11,3.78-.17l1.62-.07-1.37,53.21-1.42,.06c-1.44,.06-2.87,.12-4.31,.19l-.41,12.74-.14,4.35c9.52-.45,19.09-.68,28.67-.68,12.7,0,25.4,.4,38.01,1.19Z" fill="#ffed00"/><path d="M322.88,151.29l1.3,.12,2.98,53.46-1.74-.15c-1.28-.11-2.55-.22-3.83-.33l.53,10.69,.05,.92,.27,5.36c20.62,1.68,41.36,4.44,61.7,8.23l-.33-2.83-.47-4-2.39-20.39c-6.3-1.19-12.7-2.28-19.05-3.25l.95,10.12-1.91-.29c-4.34-.65-8.74-1.26-13.08-1.82l-1.22-.16-4.27-53.62,1.85,.24c1.13,.14,2.25,.29,3.38,.44l-1.46-17.01c-9.28-1.25-18.71-2.27-28.05-3.04l.84,16.97c1.32,.11,2.63,.22,3.95,.34Z" fill="#ffed00"/><path d="M453.24,238.55l-3.53-18.84c-6.09-1.94-12.27-3.8-18.43-5.53l1.7,10.28-2.29-.64c-4.25-1.18-8.57-2.33-12.83-3.41l-.97-.25-8.32-54.51,2.21,.56c.97,.25,1.94,.5,2.92,.75l-2.71-17.14c-9.06-2.37-18.29-4.53-27.47-6.43l2.12,17.06c1.38,.28,2.76,.57,4.14,.86l1.05,.22,7.04,54.16-2.09-.45c-1.14-.24-2.27-.48-3.41-.71l1.21,9.74,.53,4.26,.38,3.06c20.31,4.16,40.61,9.42,60.39,15.66l-1.57-8.38-.06-.34Z" fill="#ffed00"/><path d="M533.98,272.67l-2.8-10.72c-1.5-.73-3.01-1.46-4.51-2.18l-.52-.25-.22-.53c-8.32-19.65-16.5-39.28-24.3-58.32l-1.44-3.52,3.47,1.57c.89,.41,1.79,.81,2.68,1.22l-4.39-17.39c-14.92-6.92-30.31-13.23-45.8-18.77l3.5,17.24c1.68,.59,3.36,1.2,5.04,1.81l.99,.36v1.06c.02,16.02-.19,32.23-.61,48.19l-.05,2.06-1.95-.67c-.96-.33-1.93-.65-2.89-.98l1.44,7.49,.36,1.86,1.51,7.86c9.87,3.28,19.76,6.85,29.47,10.64l-3.87-17.31c-1.51-.59-3.01-1.18-4.52-1.76l-.96-.37v-1.03c-.02-1.42-.04-2.85-.06-4.27,0-.2,0-.41,0-.61l-.03-2.24,.89,.35,1.19,.46c6.32,2.45,12.68,5.04,18.9,7.71l.57,.25,4,9.82-3.4-1.46c-.83-.36-1.66-.71-2.49-1.06l4.04,17.32c9.57,4.02,19.14,8.35,28.5,12.87l-1.75-6.7Zm-40.1-51.26c-1.54-.65-3.1-1.29-4.66-1.93-1.62-.66-3.25-1.32-4.87-1.96l-.94-.37-.02-1.01c-.11-6.89-.27-13.88-.46-20.78l-.12-4.27-.12-4.17,1.56,3.87,1.6,3.97c2.11,5.25,4.26,10.56,6.42,15.86,1.2,2.94,2.4,5.89,3.6,8.82l1.38,3.38-3.37-1.41Z" fill="#ffed00"/><path d="M158.27,237.03c.68,.5,1.32,.99,1.98,1.49,17.74,13.35,29.39,24.7,36.71,32.91,2.81-4.62,6-8.91,9.5-12.86-10.46-3.24-25.83-9.23-45.73-20.18-.82-.45-1.63-.89-2.46-1.36Z" fill="#ffed00"/><path d="M151.34,274.9c14.44,5.35,24.75,10.79,31.77,15.21,1.59,1,3,1.94,4.26,2.83,.03,.02,.05,.04,.08,.06,0-.03,.02-.06,.03-.09,.21-.71,.41-1.42,.64-2.13,.29-.89,.59-1.77,.9-2.65,.72-2.02,1.51-4.03,2.39-6.02,.49-1.12,1.01-2.21,1.54-3.3-8.21,.53-21.97,.25-41.6-3.9Z" fill="#ffed00"/><path d="M218.28,247.47c-5.51-3.98-12.18-9.54-19.69-17.28-.05-.05-.1-.1-.16-.16,.04,.06,.07,.11,.11,.16,6.23,8.92,10.45,16.59,13.31,22.79,2.06-1.95,4.2-3.78,6.41-5.51Z" fill="#ffed00"/><path d="M346.65,265.83c1.26,1.76,2.45,3.57,3.58,5.41,7.61-8.5,19.8-20.31,38.53-34.22-20.97,11.75-37.08,18.08-47.97,21.47,1.15,1.3,2.26,2.62,3.33,3.97,.87,1.1,1.71,2.22,2.53,3.36Z" fill="#ffed00"/><path d="M354.38,278.82c1.48,3.03,2.79,6.15,3.92,9.32,.55,1.55,1.05,3.11,1.52,4.69,1.24-.87,2.63-1.79,4.18-2.77,7.02-4.41,17.3-9.83,31.69-15.17-19.4,4.1-33.08,4.42-41.31,3.92Z" fill="#ffed00"/><path d="M348.6,230.03s-.08,.08-.13,.13c-7.44,7.68-14.07,13.23-19.56,17.2,2.21,1.72,4.33,3.54,6.34,5.44,2.86-6.17,7.07-13.79,13.25-22.64,.03-.04,.06-.09,.09-.13Z" fill="#ffed00"/><path d="M327.41,269.28c.32-.15,.65-.28,.97-.43,.45-.21,.9-.41,1.36-.6,2.36-1,4.77-1.84,7.26-2.49-1.39-1.72-2.85-3.38-4.38-4.99-.16-.16-.31-.33-.47-.49-2.99-3.08-6.26-5.94-9.78-8.55-3.93-2.91-8.18-5.49-12.72-7.7-1.65,3-5.95,11.07-12.81,25.63,5.87,2.69,11.36,5.82,16.4,9.34,4.33-3.98,9.08-7.26,14.18-9.72Z" fill="#ffed00"/><path d="M293.74,268.29c6.07-14.89,9.1-23.52,10.19-26.76-11-4.34-22.43-6.08-33.58-5.49,4.47,8.09,6.64,17.23,6.68,26.8,5.58,1.31,11.18,3.12,16.71,5.45Z" fill="#ffed00"/><path d="M354.16,305.74c-.15-1.13-.33-2.26-.53-3.38-.24-1.35-.51-2.69-.82-4.03-.02-.08-.04-.16-.06-.23-.23-.99-.48-1.98-.75-2.96-.37-1.36-.78-2.71-1.22-4.05-.45-1.35-.92-2.68-1.44-4.01-1.27-3.25-2.75-6.42-4.43-9.48,0-.01-.01-.03-.02-.04-1.64-2.98-3.46-5.87-5.47-8.63-3.08,.77-6.06,1.85-8.92,3.2-4.97,2.35-9.59,5.54-13.76,9.44,5.6,4.28,10.6,9.05,14.93,14.15,.89,1.05,1.76,2.12,2.6,3.2,.47,.61,.94,1.23,1.39,1.85,.37,.5,.73,1,1.09,1.51,.24,.35,.49,.7,.73,1.05,.34,.5,.67,1,1,1.51,.11,.17,.22,.33,.32,.5,.53,.84,1.05,1.68,1.55,2.53,.2,.34,.4,.68,.59,1.01,.18,.31,.36,.63,.53,.95,.36,.65,.71,1.3,1.05,1.95,.21,.4,.41,.8,.61,1.2,.52,1.04,1.01,2.09,1.47,3.14,.19,.42,.37,.83,.55,1.25,.6,1.41,1.14,2.83,1.65,4.25,.14,.4,.28,.8,.42,1.21,.51,1.52,.97,3.06,1.37,4.59,.28,1.05,.52,2.11,.74,3.17,.31,1.46,.57,2.92,.78,4.39,.21,1.43,.36,2.87,.47,4.3,.06,.8,.11,1.61,.14,2.41,.24-.73,.47-1.46,.69-2.19,.39-1.29,.74-2.59,1.07-3.89,.33-1.31,.62-2.63,.88-3.94,.19-.94,.35-1.89,.5-2.84,.21-1.34,.4-2.69,.54-4.03,.15-1.36,.25-2.73,.33-4.09,.06-1.02,.1-2.05,.11-3.07,.06-3.62-.13-7.23-.56-10.79-.04-.37-.08-.74-.13-1.1Z" fill="#ffed00"/><path d="M219.43,267.67c1.46-.68,2.96-1.32,4.48-1.92,14.47-5.63,31.51-7.11,48.85-3.82,.03-9.14-2.05-17.88-6.41-25.58-14.72,1.52-28.78,7.09-40.56,16.05-3.46,2.63-6.72,5.55-9.74,8.76-.2,.22-.4,.44-.61,.65-4.27,4.64-8.06,9.83-11.21,15.55,3.96-3.38,8.39-6.29,13.16-8.71,.67-.34,1.35-.67,2.04-.99Z" fill="#ffed00"/><path d="M288.11,330.15c.15-1,.3-2,.48-2.99,.06-.35,.12-.7,.18-1.05,.19-1.01,.39-2,.61-3,.08-.35,.15-.7,.23-1.04,.18-.81,.38-1.62,.58-2.42,.04-.15,.07-.3,.11-.44,.32-1.24,.66-2.46,1.03-3.67,.04-.12,.07-.25,.11-.37,.35-1.15,.71-2.29,1.1-3.41,.07-.21,.15-.42,.23-.63,.45-1.28,.93-2.54,1.43-3.78,.44-1.1,.91-2.17,1.38-3.24,.7-1.57,1.45-3.1,2.23-4.6,.34-.65,.69-1.3,1.04-1.93,.02-.03,.04-.07,.05-.1,.39-.7,.79-1.4,1.2-2.08,.26-.44,.52-.88,.79-1.31,.4-.64,.8-1.27,1.21-1.89,.33-.5,.66-1,1-1.49,.55-.79,1.12-1.57,1.69-2.33,.14-.18,.27-.36,.41-.54,.29-.37,.57-.75,.87-1.11,.41-.52,.83-1.03,1.25-1.53,.45-.53,.9-1.05,1.35-1.56,.45-.5,.9-.99,1.35-1.47,.03-.03,.06-.07,.1-.11-4.66-3.18-9.72-6.03-15.11-8.5-.57,1.23-1.16,2.5-1.76,3.81-.6,1.31-1.22,2.65-1.85,4.04-.6,1.31-1.21,2.66-1.83,4.04-.42,.94-.85,1.89-1.29,2.87-.59,1.31-1.19,2.67-1.8,4.04-.59,1.32-1.18,2.66-1.78,4.04-2.01,4.58-4.14,9.5-6.38,14.75-.57,1.33-1.14,2.67-1.72,4.04-.34,.81-.69,1.63-1.04,2.46-.22,.53-.45,1.06-.67,1.59-.4,.94-.8,1.9-1.2,2.86-.56,1.33-1.12,2.67-1.68,4.04,0,0,0,.02,0,.02-.55,1.32-1.1,2.66-1.66,4.02-6.95,16.83-14.77,36.46-23.44,59.15,11.84,4.66,23.89,6.89,35.33,6.9,5.22-.51,10.35-1.52,15.34-3.02-5.38-11.14-8.98-23.92-10.16-37.68-.75-8.76-.47-17.29,.71-25.41Z" fill="#ffed00"/><path d="M268.31,326.17c.63-1.36,1.26-2.71,1.87-4.04,.44-.96,.88-1.91,1.32-2.86,.63-1.37,1.25-2.72,1.86-4.06,.62-1.37,1.24-2.72,1.84-4.04,2.37-5.23,4.56-10.14,6.59-14.75,.6-1.37,1.2-2.72,1.77-4.04,.6-1.38,1.18-2.72,1.75-4.04,.42-.97,.83-1.93,1.23-2.87,.59-1.38,1.17-2.73,1.73-4.05,.59-1.38,1.16-2.73,1.71-4.04,.74-1.77,1.45-3.46,2.12-5.1-5.04-2.12-10.12-3.82-15.2-5.07-.21,3.37-.69,6.78-1.4,10.2-.18,.86-.37,1.71-.58,2.57-.12,.49-.25,.98-.38,1.47-.36,1.35-.75,2.7-1.19,4.05-.31,.95-.64,1.91-.98,2.86-.13,.36-.25,.72-.39,1.07-.37,.99-.78,1.98-1.19,2.97-.57,1.35-1.17,2.7-1.81,4.04-2.41,5.03-5.34,9.98-8.77,14.76-.98,1.36-2,2.71-3.06,4.04-1.1,1.39-2.25,2.76-3.44,4.11-.84,.96-1.71,1.91-2.6,2.85-1.12,1.18-2.27,2.35-3.46,3.5-1.13,1.09-2.28,2.16-3.47,3.22-1.94,1.72-3.95,3.4-6.04,5.01-11.2,8.65-23.35,14.74-35.49,18.28,2.19,4.38,4.78,8.57,7.75,12.51,7.75,8.41,17.56,15.78,28.99,21.34,10.53-21.12,19.47-39.69,27.02-55.86,.64-1.36,1.26-2.71,1.88-4.04Z" fill="#ffed00"/><path d="M345.44,333.73c-.18-1.19-.39-2.39-.65-3.58-.07-.32-.15-.63-.23-.95-.28-1.21-.6-2.42-.96-3.63-.38-1.27-.81-2.54-1.27-3.8-.1-.26-.19-.53-.29-.79-.56-1.46-1.17-2.92-1.84-4.36-.14-.31-.28-.62-.43-.93-.04-.08-.08-.16-.12-.24-.53-1.09-1.09-2.18-1.68-3.25-.21-.39-.43-.79-.65-1.18-.26-.45-.52-.9-.79-1.35,0,0,0-.02-.01-.03-.12-.21-.24-.42-.37-.62-.41-.67-.83-1.34-1.26-2-.13-.2-.27-.4-.4-.6-.43-.65-.87-1.29-1.32-1.93-.44-.63-.9-1.25-1.36-1.87-.04-.06-.08-.12-.13-.17-.65-.87-1.34-1.72-2.03-2.57-.18-.22-.37-.45-.56-.67-4.39-5.26-9.54-10.17-15.38-14.56-.11,.12-.22,.25-.34,.37-.48,.52-.94,1.05-1.4,1.59-.42,.49-.83,.98-1.23,1.48-.45,.56-.89,1.12-1.32,1.7-.39,.52-.78,1.05-1.16,1.59-.31,.43-.62,.87-.92,1.32-.25,.37-.5,.75-.75,1.13-.5,.76-.98,1.54-1.45,2.33-.05,.09-.11,.18-.16,.27-.22,.37-.43,.73-.64,1.11-.12,.21-.24,.42-.35,.63-.32,.58-.64,1.16-.95,1.75-.35,.67-.69,1.34-1.02,2.03-.03,.05-.05,.1-.07,.16-.23,.47-.46,.95-.68,1.43-.03,.06-.06,.13-.09,.19-.41,.89-.8,1.8-1.18,2.72-.11,.26-.22,.52-.33,.79-.39,.96-.75,1.93-1.11,2.92-.02,.05-.04,.1-.05,.15-.45,1.27-.88,2.56-1.28,3.87-.06,.2-.12,.4-.18,.6-.03,.1-.06,.2-.09,.29-.4,1.35-.77,2.73-1.11,4.12,0,.04-.02,.07-.03,.11-.23,.96-.46,1.92-.66,2.9-.06,.28-.11,.56-.17,.85-.21,1.06-.4,2.12-.58,3.19-.05,.3-.1,.6-.15,.91-.16,1.03-.3,2.08-.42,3.13-.79,6.62-.94,13.53-.33,20.59,1.27,14.74,5.59,28.26,12.07,39.54,15.84-6.64,29.59-18.35,38.6-34.08,1.69-5.93,2.24-12.08,1.76-18.25-.11-1.44-.28-2.87-.5-4.31Z" fill="#ffed00"/><path d="M237.99,325.83c.78-.61,1.55-1.23,2.31-1.86,.34-.28,.67-.55,1-.84,1.09-.93,2.15-1.87,3.18-2.83,.76-.7,1.5-1.41,2.23-2.12,.06-.06,.12-.12,.18-.18,1-.99,1.97-1.99,2.92-3.01,.31-.33,.61-.66,.91-1,.79-.88,1.57-1.76,2.32-2.66,1.65-1.97,3.21-3.98,4.66-6.03,2.05-2.88,3.9-5.83,5.54-8.83,.73-1.34,1.43-2.69,2.08-4.04,.3-.63,.59-1.25,.87-1.88,.32-.72,.64-1.44,.94-2.16,.29-.7,.58-1.41,.85-2.11,.09-.25,.18-.5,.27-.74,.24-.64,.47-1.29,.69-1.93,.24-.71,.47-1.41,.69-2.12,.2-.64,.39-1.29,.57-1.93,.2-.7,.38-1.41,.56-2.11,.93-3.74,1.54-7.48,1.82-11.18-21.68-4.32-42.74-.86-58.13,9.08-3.18,2.05-6.12,4.38-8.76,6.98-1.65,1.62-3.18,3.34-4.6,5.16-.93,1.2-1.81,2.44-2.63,3.72-.17,.26-.34,.51-.5,.77-.02,.03-.04,.06-.06,.1-.32,1.01-.62,2.03-.9,3.05-.14,.49-.25,.99-.38,1.49-.12,.46-.24,.92-.34,1.39-.32,1.35-.61,2.71-.86,4.07-.12,.67-.22,1.33-.32,2-.11,.72-.22,1.44-.31,2.16-.1,.78-.2,1.55-.27,2.33-.25,2.58-.36,5.15-.36,7.71,0,1.1,.02,2.2,.07,3.3,0,.22,.02,.45,.03,.67,.07,1.37,.17,2.74,.31,4.1,.14,1.35,.3,2.7,.5,4.05,.15,.95,.31,1.89,.49,2.83,.25,1.32,.53,2.64,.85,3.95,.32,1.31,.68,2.61,1.06,3.9,.52,1.77,1.1,3.52,1.74,5.25,13.01-2.78,26.25-8.81,38.27-18.09,.17-.13,.33-.26,.49-.39Z" fill="#ffed00"/></g><g><path d="M169.79,314.66c1.52,.94,2.74,2.28,3.54,3.93,1.12,2.31,1.21,4.85,.46,7.11l10.15-2.71c-.24-4.37-.14-8.78,.27-13.2l-14.42,4.86Z" fill="#140f11"/><path d="M377.46,314.66l-14.35-4.84c.41,4.36,.51,8.77,.28,13.19l10.07,2.69c-.75-2.26-.66-4.8,.46-7.11,.8-1.65,2.02-2.99,3.54-3.93Z" fill="#140f11"/><path d="M402.52,342.99l-7.17-3.47c-4.48,4.1-10.41,6.48-16.78,6.48h-.07c-2.95,0-5.85-.54-8.62-1.58l-9.55-2.55c-1.15,4.19-2.61,8.36-4.41,12.46-1.26,2.86-2.65,5.63-4.16,8.29-9.58,16.89-24.03,29.66-40.77,37.3-2.87,1.31-5.8,2.47-8.78,3.47-20.43,6.86-43.38,6.42-64.67-2.92-21-9.22-36.7-25.51-45.55-44.84-1.33-2.9-2.5-5.86-3.52-8.88-.54-1.61-1.02-3.25-1.47-4.89l-9.63,2.57c-2.77,1.04-5.67,1.57-8.62,1.58h-.07c-6.38,0-12.3-2.39-16.78-6.48l-7.17,3.47c-.02,6.76-3.09,13.35-8.64,17.65l137.57,80.9,137.69-80.75c-5.66-4.28-8.82-10.95-8.83-17.79Z" fill="#140f11"/><path d="M155.18,125.61c1.28-4.91,2.57-9.83,3.85-14.74-1.01-.54-2.01-1.07-3-1.6,1.43-1.12,2.86-2.23,4.29-3.33,1.28-4.91,2.57-9.83,3.85-14.74-1.88-1.09-3.73-2.16-5.55-3.23-11.74,3.02-23.4,6.51-34.93,10.46-1.18,3.36-2.36,6.73-3.53,10.09,1.13-.39,2.26-.77,3.39-1.15-2.89,8.42-5.78,16.84-8.67,25.26-1.2,.4-2.39,.8-3.59,1.21-1.19,3.39-2.37,6.77-3.56,10.16,12.75-4.37,25.63-8.22,38.61-11.56,2.97-2.3,5.92-4.57,8.85-6.82Zm-17.82-22.63c3.84-1.16,7.69-2.26,11.56-3.32-.73,2.5-1.45,5-2.18,7.5-3.93,1.08-7.85,2.2-11.76,3.38,.79-2.52,1.59-5.04,2.38-7.56Zm4.33,21.5c-4.08,1.12-8.16,2.29-12.22,3.51,.79-2.5,1.57-4.99,2.36-7.49,4-1.2,8-2.35,12.02-3.45-.72,2.48-1.44,4.96-2.16,7.43Z" fill="#140f11"/><path d="M188,123.51c7.62-1.31,15.26-2.44,22.92-3.4,.45-3.2,.91-6.39,1.36-9.59-1.24,.16-2.48,.32-3.71,.48-1.46-7.7-2.78-15.39-3.95-23.08,1.32-.2,2.65-.39,3.97-.58,.51-3.2,1.01-6.41,1.52-9.61-11.55,1.63-23.06,3.69-34.49,6.18-.77,3.25-1.55,6.5-2.32,9.75,1.34-.29,2.68-.58,4.02-.86-4.37,8.69-8.89,17.43-13.54,26.22-1.22,.28-2.44,.56-3.67,.84-.83,3.26-1.65,6.53-2.48,9.79,7.55-1.76,15.13-3.36,22.73-4.78,.67-3.23,1.34-6.46,2-9.69-1.23,.23-2.46,.46-3.69,.7,.44-.87,.87-1.75,1.3-2.62,4.41-.85,8.82-1.64,13.24-2.37,.11,.78,.22,1.55,.32,2.33-1.23,.2-2.47,.41-3.7,.62-.61,3.22-1.23,6.44-1.84,9.66Zm-2.83-20.59c1.82-3.71,3.62-7.41,5.39-11.1,.41,3.3,.85,6.6,1.32,9.9-2.24,.39-4.48,.79-6.71,1.2Z" fill="#140f11"/><path d="M261.1,87.65c.11-3.19,.22-6.38,.33-9.57-2.31-1.53-4.58-3.03-6.83-4.53-9.02,.4-18.04,1.07-27.03,1.99-2.51,1.84-5.05,3.71-7.61,5.59-.75,5.61-1.5,11.23-2.25,16.84,2.23,1.32,4.49,2.65,6.77,4,7.1-.73,14.21-1.31,21.33-1.73-.16,2.39-.33,4.77-.49,7.16-4.71,.28-9.43,.63-14.13,1.04,.16-1.6,.32-3.2,.48-4.8-4.98,.44-9.95,.95-14.92,1.53-.43,3.21-.86,6.43-1.29,9.64,2.32,1.31,4.68,2.63,7.06,3.97,9.94-1.02,19.9-1.76,29.88-2.2,2.66-1.71,5.29-3.4,7.9-5.07,.19-5.57,.38-11.14,.57-16.72-2.4-1.52-4.77-3.03-7.12-4.51-6.97,.31-13.93,.77-20.88,1.38,.24-2.39,.48-4.78,.72-7.17,4.45-.39,8.91-.72,13.37-.98-.11,1.6-.22,3.19-.33,4.79,4.82-.29,9.65-.5,14.48-.65Z" fill="#140f11"/><path d="M297.41,87.93c3.6,.16,7.21,.37,10.81,.61-.37-4.8-.74-9.59-1.11-14.39-13.97-.94-27.98-1.26-41.98-.95-.12,4.78-.24,9.57-.36,14.35,3.64-.08,7.28-.12,10.91-.12,0-1.59,0-3.19,0-4.78,1.21,0,2.42,0,3.63,.02,.07,7.95,.15,15.9,.22,23.85-1.28-.01-2.56-.02-3.84-.02,0,3.19,0,6.38,0,9.57,7.74,0,15.47,.18,23.2,.53-.17-3.19-.33-6.38-.5-9.58-1.24-.06-2.49-.11-3.73-.16-.35-7.96-.69-15.91-1.04-23.87,1.18,.04,2.36,.09,3.53,.15,.08,1.6,.17,3.19,.25,4.79Z" fill="#140f11"/><path d="M315.05,117.58c7.69,.59,15.36,1.35,23.02,2.28-.44-3.22-.88-6.43-1.33-9.65-1.24-.15-2.48-.3-3.72-.44-1.04-8.01-2.07-16.02-3.11-24.03,1.17,.13,2.34,.27,3.52,.41-.44-3.22-.88-6.43-1.33-9.65-6.93-.84-13.88-1.53-20.83-2.06,.28,3.2,.56,6.4,.84,9.6,1.18,.09,2.35,.18,3.53,.28,.76,7.98,1.53,15.97,2.29,23.95-1.24-.1-2.48-.2-3.73-.3,.28,3.2,.56,6.4,.84,9.6Z" fill="#140f11"/><path d="M350.64,121.55c9.9,1.45,19.77,3.19,29.59,5.22,2.17-1.11,4.31-2.2,6.41-3.28-2.77-11.42-5.54-22.84-8.3-34.27-2.71-2.15-5.41-4.28-8.07-6.39-8.89-1.84-17.82-3.41-26.78-4.72-2.02,1.28-4.07,2.57-6.14,3.88,1.66,11.23,3.33,22.45,4.99,33.68,2.74,1.94,5.51,3.9,8.3,5.88Zm14.78-30.39c1.72,8.13,3.43,16.27,5.15,24.4-4.63-.88-9.26-1.7-13.9-2.45-1.46-8.09-2.93-16.18-4.39-24.27,4.39,.71,8.77,1.49,13.15,2.32Z" fill="#140f11"/><path d="M439.6,142.76c-4.05-11.8-8.1-23.6-12.15-35.39,1.13,.38,2.26,.76,3.39,1.15-1.19-3.39-2.37-6.77-3.56-10.16-6.71-2.3-13.46-4.44-20.25-6.42,1.03,3.34,2.05,6.67,3.08,10.01,1.17,.34,2.34,.69,3.51,1.04,1.27,4.04,2.55,8.08,3.82,12.12-6.64-8.68-13.09-17.24-19.33-25.68-5.58-1.51-11.17-2.92-16.79-4.22,.83,3.28,1.65,6.57,2.48,9.85,1.19,.27,2.37,.55,3.55,.84,2.13,8.2,4.26,16.4,6.39,24.61-1.25-.3-2.5-.6-3.76-.89,.83,3.28,1.65,6.57,2.48,9.85,7.58,1.76,15.14,3.69,22.66,5.8-.99-3.32-1.97-6.65-2.96-9.97-1.21-.34-2.42-.67-3.63-1-1.13-3.8-2.26-7.6-3.39-11.4,6.24,8.24,12.67,16.6,19.28,25.07,5.07,1.52,10.13,3.13,15.17,4.81Z" fill="#140f11"/><path d="M542.43,281.02l-5.57-21.27c-.34-1.28-1.21-2.35-2.4-2.93-1.21-.59-2.42-1.18-3.63-1.76-6.88-16.26-13.65-32.48-20.19-48.36,.29-.15,.57-.33,.83-.54,1.35-1.12,1.94-2.91,1.51-4.61l-5.34-21.17c-.33-1.32-1.25-2.43-2.49-3.01-16.11-7.5-32.77-14.3-49.52-20.19-1.54-.54-3.26-.21-4.49,.86-.94,.82-1.49,1.97-1.55,3.19-10.84-3.76-21.6-7.1-32.26-10.04l-.52-3.27c-.28-1.78-1.59-3.22-3.33-3.68-10.16-2.68-20.53-5.1-30.82-7.18-1.43-.29-2.92,.13-3.99,1.12-1.01,.93-1.53,2.27-1.44,3.63-8.4-1.62-16.73-3.01-24.96-4.19l-.2-2.31c-.18-2.12-1.8-3.82-3.91-4.11-10.35-1.42-20.89-2.56-31.32-3.38-1.3-.11-2.59,.36-3.52,1.27-.04,.03-.06,.08-.09,.11-.76-1.15-2.02-1.93-3.49-2.03-21.12-1.39-42.55-1.56-63.7-.49-2.36,.12-4.24,2.03-4.31,4.39l-.08,2.37c-1.37,.09-2.72,.18-4.08,.28-1.69-1.54-3.36-3.08-5.03-4.61-.93-.86-2.18-1.28-3.44-1.18-17.47,1.42-35.07,3.71-52.31,6.81-1.11,.2-2.07,.81-2.74,1.65-.97-.63-2.16-.88-3.32-.66-10.32,1.97-20.71,4.27-30.88,6.83-1.53,.38-2.73,1.53-3.21,3-.02-.01-.03-.03-.05-.04-1.14-1.03-2.73-1.41-4.21-1.02-10.19,2.72-20.43,5.77-30.45,9.07-1.56,.52-2.73,1.84-3.04,3.46l-.86,4.49c-2.73,.91-5.38,1.81-7.96,2.71-1.08-.94-2.15-1.87-3.22-2.8-1.26-1.1-3.01-1.42-4.58-.84-16.89,6.29-33.66,13.5-49.87,21.44-1.19,.58-2.06,1.65-2.4,2.93l-5.57,21.27c-.45,1.72,.14,3.54,1.52,4.67,.44,.36,.93,.63,1.45,.8l-11.17,43.48c-1.14,.55-2.27,1.1-3.41,1.66-1.19,.58-2.06,1.65-2.4,2.93l-5.57,21.27c-.45,1.72,.14,3.54,1.52,4.67,.83,.68,1.85,1.03,2.88,1.03,.31,0,.62-.04,.93-.1l83.89,49.33,16.72-12.07c.13-.09,.26-.17,.39-.25l.28-.16c5.22-2.91,11.25-3.61,16.99-1.99,3.04,.86,5.8,2.34,8.16,4.3l7.18-3.48c-.17-3.66,.48-7.35,1.95-10.82,2.59-6.11,7.4-10.85,13.55-13.34,.04-.01,.07-.03,.11-.04l.31-.11s.08-.03,.12-.04l23.25-7.83c-7.02-4.42-17.32-9.86-31.77-15.21,19.63,4.15,33.39,4.43,41.6,3.9,1.24-2.54,2.58-5,4.02-7.37-7.32-8.21-18.98-19.55-36.71-32.91-.66-.5-1.31-.99-1.98-1.49,.83,.47,1.65,.91,2.46,1.36,19.9,10.95,35.27,16.94,45.73,20.18,1.73-1.95,3.53-3.81,5.4-5.59-2.86-6.2-7.08-13.87-13.31-22.79-.04-.06-.07-.11-.11-.16,.05,.05,.1,.1,.16,.16,7.5,7.74,14.17,13.31,19.69,17.28,13.13-10.26,28.89-16.69,45.41-18.55,1.41-.16,2.82-.28,4.23-.37,13.9-.9,28.22,1.42,41.86,7.41,6.99,3.07,13.38,6.92,19.14,11.4,5.49-3.97,12.12-9.52,19.56-17.2,.04-.04,.08-.08,.13-.13-.03,.04-.06,.09-.09,.13-6.18,8.85-10.39,16.46-13.25,22.64,1.94,1.82,3.78,3.73,5.54,5.7,10.89-3.39,27-9.72,47.97-21.47-18.74,13.91-30.93,25.72-38.53,34.22,1.5,2.46,2.89,4.98,4.15,7.57,8.24,.5,21.91,.18,41.31-3.92-14.39,5.33-24.67,10.75-31.69,15.17l23.38,7.88s.08,.03,.12,.04l.31,.11s.07,.03,.11,.04c6.15,2.49,10.96,7.23,13.55,13.34,1.47,3.48,2.12,7.16,1.95,10.82l7.18,3.48c2.36-1.96,5.12-3.44,8.16-4.3,5.74-1.63,11.78-.92,16.99,1.98l.28,.16c.14,.07,.27,.16,.39,.25l16.97,12.25,84.29-49.43c.12,0,.23,.02,.35,.02,1.03,0,2.05-.35,2.88-1.03,1.37-1.12,1.97-2.95,1.52-4.66ZM178.98,140.48c16.48-2.92,33.28-5.1,49.96-6.48,.13,.12,.26,.24,.39,.36,2.85,2.62,5.73,5.25,8.64,7.91l-.31,7.99-1.02,25.87-10.65,10.08c-9.08,.75-18.25,1.72-27.28,2.9l-1.21,.16-1.48,18.18,1.86-.24c1.23-.16,2.46-.32,3.7-.47l-1.29,17.12c-10.34,1.27-20.77,2.82-31.04,4.63l1.9-17.18c1.46-.26,2.92-.51,4.39-.76l1.13-.19,5.64-53.72-1.97,.33c-1.08,.18-2.16,.37-3.23,.56l.49-4.4,1.34-12.11,.06-.54ZM15.14,277.68c-1.18,.56-2.38,1.12-3.55,1.69l4.56-17.42c1.55-.76,3.1-1.5,4.65-2.24l.64-.3,14.71-57.21-2.93,1.4c-.68,.33-1.37,.65-2.05,.98l4.56-17.42c15.56-7.6,31.65-14.52,47.85-20.58,2.14,1.87,4.31,3.75,6.52,5.65l-.18,.89-5.85,28.95c-1.98,2.22-3.96,4.44-5.95,6.68l-1.04,1.17,1.2,1c1.13,.95,2.28,1.9,3.43,2.86l-4.56,22.55,2.51-.88c.48-.17,.96-.34,1.44-.5l-1.9,9.57-1.52,7.65c-3.39,1.17-6.77,2.38-10.15,3.61-5.63,2.05-11.25,4.18-16.8,6.39l1.96-8.65,1.97-8.67c1.18-.48,2.37-.95,3.56-1.42l.75-.29,4.32-19.39-2.65,1.05c-5.42,2.14-10.87,4.39-16.22,6.69l-.7,.3-4.67,19.6,2.77-1.19c.83-.36,1.66-.71,2.49-1.06l-2.08,8.94-1.95,8.38c-1.68,.71-3.37,1.43-5.05,2.16-6.72,2.9-13.42,5.94-20.04,9.08Zm139.91-55.9c-3.94,3.93-7.92,7.89-11.93,11.9-13.64,3.03-27.35,6.58-40.76,10.55-.4-.3-.78-.58-1.17-.88-1.87-1.4-3.72-2.79-5.55-4.17-.37-.28-.75-.57-1.12-.84l11.89-63.58-2.41,.77c-.88,.28-1.76,.57-2.64,.85l1.13-5.88,2.14-11.14,.06-.33c8.9-2.92,17.97-5.63,27.01-8.09l-.09,.54-2.67,16.72c-1.4,.38-2.8,.76-4.2,1.14l-.93,.26-9.02,54.59,2.28-.63c6.22-1.72,12.56-3.37,18.84-4.88l.99-.24,7.93-54.27-2.18,.53c-.99,.24-1.98,.48-2.96,.72l2.53-16.66,.09-.6c9.08-2.27,18.33-4.32,27.53-6.12l-.08,.67-1.34,11.44-.6,5.08c-1.38,.27-2.75,.54-4.12,.81l-1.07,.22-7.58,61.52Zm118.57-2.4c-9.58,0-19.15,.23-28.67,.68l.14-4.35,.41-12.74c1.44-.07,2.87-.13,4.31-.19l1.42-.06,1.37-53.21-1.62,.07c-1.26,.05-2.52,.11-3.78,.17l.08-2.41,.45-14.26v-.43c20.02-.95,40.28-.8,60.26,.47v.06s1.13,27.11,1.13,27.11c-6.15-.39-12.37-.68-18.53-.86l-.18-10.06-1.45-.04c-5.48-.15-11.06-.22-16.56-.21h-1.51s-.02,18.05-.02,18.05h1.52c6.5-.02,13.06,.08,19.55,.29l.38,17.09c-6.62-.21-13.34-.32-19.96-.3h-1.51s-.03,18.05-.03,18.05h1.52c5.78-.02,11.63,.06,17.41,.22l1.58,.04-.17-10.06c6.43,.19,12.92,.5,19.34,.91l.86,20.7v.09s.27,6.38,.27,6.38c-12.61-.79-25.31-1.19-38.01-1.19Zm48.81,1.97l-.27-5.36-.05-.92-.53-10.69c1.28,.1,2.55,.21,3.83,.33l1.74,.15-2.98-53.46-1.3-.12c-1.32-.12-2.63-.23-3.95-.34l-.84-16.97c9.35,.77,18.77,1.79,28.05,3.04l1.46,17.01c-1.13-.15-2.25-.3-3.38-.44l-1.85-.24,4.27,53.62,1.22,.16c4.33,.55,8.74,1.16,13.08,1.82l1.91,.29-.95-10.12c6.35,.98,12.75,2.07,19.05,3.25l2.39,20.39,.47,4,.33,2.83c-20.34-3.79-41.08-6.56-61.7-8.23Zm72.05,10.26l-.38-3.06-.53-4.26-1.21-9.74c1.14,.23,2.27,.47,3.41,.71l2.09,.45-7.04-54.16-1.05-.22c-1.38-.29-2.76-.58-4.14-.86l-2.12-17.06c9.18,1.9,18.4,4.06,27.47,6.43l2.71,17.14c-.97-.25-1.94-.5-2.92-.75l-2.21-.56,8.32,54.51,.97,.25c4.26,1.08,8.58,2.23,12.83,3.41l2.29,.64-1.7-10.28c6.16,1.74,12.34,3.59,18.43,5.53l3.53,18.84,.06,.34,1.57,8.38c-19.78-6.24-40.08-11.5-60.39-15.66Zm112.74,34.88l-4.04-17.32c.83,.35,1.66,.71,2.49,1.06l3.4,1.46-4-9.82-.57-.25c-6.23-2.67-12.59-5.26-18.9-7.71l-1.19-.46-.89-.35,.03,2.24c0,.2,0,.41,0,.61,.02,1.42,.03,2.85,.05,4.27v1.03s.97,.37,.97,.37c1.51,.58,3.02,1.17,4.52,1.76l3.87,17.31c-9.7-3.79-19.6-7.37-29.47-10.64l-1.51-7.86-.36-1.86-1.44-7.49c.96,.32,1.93,.65,2.89,.98l1.95,.67,.05-2.06c.42-15.96,.62-32.17,.61-48.19v-1.06s-1-.36-1-.36c-1.68-.61-3.36-1.21-5.04-1.81l-3.5-17.24c15.49,5.54,30.89,11.85,45.8,18.77l4.39,17.39c-.89-.41-1.79-.82-2.68-1.22l-3.47-1.57,1.44,3.52c7.8,19.05,15.98,38.67,24.3,58.32l.22,.53,.52,.25c1.51,.72,3.01,1.45,4.51,2.18l2.8,10.72,1.75,6.7c-9.37-4.53-18.94-8.85-28.5-12.87Z" fill="#140f11"/><path d="M220.68,23.45l-1.73-15.57c-12.67,1.46-25.18,3.43-37.52,5.87l2.86,15.1c11.98-2.25,24.11-4.06,36.39-5.4Z" fill="#140f11"/><path d="M365.88,13.75c-12.34-2.44-24.85-4.41-37.52-5.87l-1.73,15.57c12.27,1.35,24.41,3.15,36.39,5.4l2.86-15.1Z" fill="#140f11"/><path d="M273.66,20.55c6.29,0,12.56,.12,18.79,.36l.62-15.77c-6.44-.26-12.91-.4-19.41-.4s-12.97,.14-19.41,.4l.62,15.77c6.23-.24,12.5-.36,18.79-.36Z" fill="#140f11"/><path d="M114.72,47.45l4.49,12.82,.11,.31,4.45,12.7,.12,.35,4.45,12.72c9.72-3.4,19.59-6.48,29.61-9.2,11.16-3.04,22.5-5.64,34-7.8,10.95-2.06,22.05-3.71,33.27-4.94,10.32-1.13,20.74-1.91,31.26-2.32,5.7-.22,11.43-.33,17.18-.33s11.48,.11,17.18,.33c10.52,.4,20.94,1.19,31.26,2.32,11.22,1.23,22.32,2.88,33.27,4.94,11.5,2.16,22.84,4.77,34,7.8,10.02,2.73,19.89,5.8,29.61,9.2l4.45-12.72,.12-.35,4.45-12.7,.11-.31,4.49-12.82,.05-.15,4.7-13.42c-10.89-4.02-21.97-7.66-33.21-10.88l-3.92,14.38c9.93,2.7,19.73,5.72,29.4,9.03-9.25-2.64-18.61-5.04-28.07-7.21l-3.66,11.32c8.27,2.44,16.46,5.1,24.53,8-8.22-2.46-16.53-4.71-24.93-6.77-.37-.09-.74-.19-1.12-.28-.47-.11-.94-.22-1.4-.33-11.08-2.65-22.3-4.95-33.66-6.88l-2.46,10.05c11.4,2.41,22.63,5.3,33.7,8.64,.21,.06,.43,.12,.64,.19,.19,.06,.37,.12,.56,.18,7.93,2.42,15.78,5.08,23.53,7.96-7.89-2.44-15.87-4.69-23.92-6.73l-3.08,9.54,.2-.99,1.81-8.82c-11.21-2.82-22.58-5.25-34.09-7.27-.16-.03-.31-.06-.47-.09-.19-.03-.38-.06-.56-.09-10.95-1.9-22.04-3.44-33.23-4.59l-1.4,8.36-.03,.17,.47-8.63c-10.31-1.04-20.72-1.76-31.22-2.14-.14,0-.28-.01-.42-.02-.14,0-.27,0-.41-.01-5.72-.2-11.47-.31-17.24-.31s-11.52,.11-17.25,.31l-.11,7.21v-.15s-.72-7.03-.72-7.03c-10.5,.38-20.91,1.1-31.22,2.14-.16,.02-.33,.03-.49,.05-.16,.02-.31,.04-.47,.05-11.2,1.15-22.28,2.69-33.23,4.59l1.21,9.33-.09-.38-2.15-8.77c-11.51,2.02-22.88,4.45-34.09,7.27-.19,.05-.37,.09-.56,.14-.17,.04-.34,.09-.52,.13-8.06,2.05-16.03,4.29-23.92,6.73,7.75-2.88,15.59-5.54,23.53-7.96l-3.74-11.57c-8.4,2.06-16.71,4.31-24.93,6.77,8.08-2.9,16.26-5.57,24.53-8,.39-.11,.78-.24,1.17-.35,.49-.14,.98-.27,1.47-.41,10.94-3.15,22.03-5.88,33.28-8.19l-2.36-9.61c-11.22,1.79-22.31,3.91-33.27,6.35-.74,.16-1.49,.32-2.22,.48-.58,.13-1.15,.27-1.72,.4-9.46,2.17-18.82,4.57-28.07,7.21,9.67-3.31,19.47-6.33,29.4-9.03l-3.92-14.38c-11.25,3.23-22.33,6.86-33.21,10.88l4.7,13.42,.05,.15Z" fill="#140f11"/><path d="M186.86,31.37l1.25,9.66c10.72-2.12,21.57-3.85,32.54-5.17,.46-.06,.92-.12,1.39-.18,.47-.06,.95-.1,1.42-.15,10.05-1.15,20.2-1.96,30.43-2.41l-.79-7.94c-10.11,.36-20.14,.97-30.1,1.85-.63,.06-1.27,.1-1.91,.16-.62,.06-1.24,.13-1.87,.19-10.89,1.03-21.69,2.37-32.37,4Z" fill="#140f11"/><path d="M256.61,37.19c-.37,.01-.74,.02-1.1,.03-.4,.01-.8,.04-1.2,.05-10.3,.38-20.52,1.05-30.64,2.02l.49,9.12c10.23-1.24,20.57-2.09,31.01-2.56,.23-.01,.45-.03,.68-.04,.21,0,.42-.01,.63-.02,5.7-.24,11.43-.37,17.18-.37s11.48,.13,17.18,.37l-.14-8.6c-5.66-.18-11.34-.29-17.04-.29s-11.39,.1-17.05,.29Z" fill="#140f11"/><path d="M188.48,43.87c-.43,.07-.87,.13-1.31,.21-.39,.07-.78,.14-1.17,.21-11.36,1.93-22.58,4.23-33.66,6.88l2.42,11.81c11.07-3.34,22.3-6.23,33.7-8.64,.21-.04,.41-.09,.62-.14,.24-.05,.48-.09,.71-.14,10.86-2.26,21.86-4.09,32.98-5.47l-1.52-9.05c-11.04,1.11-21.97,2.56-32.78,4.34Z" fill="#140f11"/><path d="M293.01,37.27l-.86,8.58c10.43,.47,20.77,1.32,31.01,2.56,.23,.03,.47,.05,.7,.08,.22,.03,.45,.06,.67,.09,11.12,1.38,22.12,3.21,32.98,5.47l1.32-10.18c-10.81-1.78-21.74-3.24-32.78-4.34-.39-.04-.79-.09-1.18-.13-.41-.04-.81-.07-1.22-.11-10.13-.97-20.35-1.64-30.64-2.01Z" fill="#140f11"/><path d="M362.49,31.67c-.68-.11-1.36-.2-2.03-.3-10.68-1.63-21.48-2.97-32.37-4l-1.42,8.49c10.97,1.32,21.82,3.05,32.54,5.17,.49,.1,.98,.18,1.47,.28,.43,.09,.86,.19,1.3,.28,11.25,2.3,22.34,5.04,33.28,8.19l2.35-11.45c-10.96-2.44-22.05-4.56-33.27-6.35-.61-.1-1.22-.21-1.83-.3Z" fill="#140f11"/><path d="M290.51,25.06c-5.6-.16-11.21-.26-16.85-.26s-11.26,.1-16.85,.26l-.13,7.95c5.64-.22,11.29-.34,16.98-.34s11.34,.12,16.98,.34c.45,.02,.89,.02,1.34,.04,.48,.02,.96,.05,1.45,.07,10.23,.46,20.38,1.26,30.43,2.41l.46-8.51c-9.95-.87-19.99-1.49-30.1-1.85-.64-.02-1.29-.06-1.93-.08-.59-.02-1.18-.03-1.78-.04Z" fill="#140f11"/><path d="M66.36,206.73l.75-.29,4.32-19.39-2.65,1.05c-5.2,2.06-10.45,4.22-15.6,6.43l-.7,.3-4.67,19.6,2.77-1.19c5.2-2.24,10.51-4.43,15.78-6.51Z" fill="#140f11"/><path d="M216.99,170.01l1.28-.13,1.15-18.13-1.78,.18c-5.33,.54-10.74,1.16-16.06,1.86l-1.21,.16-1.48,18.18,1.86-.24c5.38-.7,10.85-1.33,16.25-1.88Z" fill="#140f11"/><path d="M492.27,210.61c-2.16-5.3-4.31-10.61-6.42-15.86l-1.6-3.97-1.56-3.87,.12,4.17,.12,4.27c.19,6.9,.35,13.89,.46,20.78l.02,1.01,.94,.37c1.62,.64,3.25,1.3,4.87,1.96,1.56,.64,3.12,1.28,4.66,1.93l3.37,1.41-1.38-3.38c-1.2-2.93-2.4-5.88-3.6-8.82Z" fill="#140f11"/><path d="M140.57,345.01c.17-1.48,.16-2.97-.04-4.46l1.12-.54,2.67-1.29,4.73-2.29,2.77-1.34,.96-.47c.94,1.11,1.98,2.11,3.11,2.98,2.64,2.05,5.75,3.42,9.03,4.02,1.25,.23,2.52,.36,3.81,.36,2.46,0,4.97-.45,7.39-1.39l9.9-2.64c-.3-1.31-.57-2.63-.81-3.96-.17-.94-.32-1.89-.46-2.84-.2-1.35-.37-2.7-.5-4.05l-11.58,3.09-.32,.13c-.95,.39-1.93,.61-2.91,.69-2.15,.17-4.28-.38-6.07-1.51l3.77-1.83c.39-.19,.75-.42,1.07-.69,1.92-1.56,2.6-4.29,1.47-6.62-.49-1.02-1.26-1.81-2.17-2.34-.96-.56-2.07-.81-3.2-.72-.66,.05-1.32,.22-1.94,.53l-3.44,1.67c.13-.73,.33-1.45,.63-2.15,.08-.2,.18-.39,.28-.58,.63-1.26,1.5-2.35,2.57-3.23,.72-.58,1.52-1.07,2.39-1.44l19.92-6.72c.22-1.51,.48-3.02,.78-4.52,.22-1.09,.45-2.17,.7-3.25,.36-1.53,.78-3.06,1.23-4.59-.03-.02-.05-.04-.08-.06l-5.48,1.85-20.73,6.98-.31,.11c-5.15,2.09-9.18,6.05-11.35,11.17-.99,2.35-1.52,4.81-1.62,7.29-.03,.71-.02,1.41,.02,2.12,.05,.75,.13,1.49,.26,2.23l-1.04,.5-2.72,1.32-4.74,2.3-2.59,1.26-1.17,.57c-.53-.58-1.08-1.12-1.68-1.62-.53-.45-1.08-.87-1.65-1.25-1.57-1.05-3.31-1.86-5.17-2.39-4.71-1.33-9.65-.76-13.92,1.63l-.28,.16-15.28,11.03-3.58,2.58c-.16,.11-.3,.24-.45,.36-3.98,3.03-6.28,7.48-6.7,12.15-.35,3.92,.63,7.98,3.08,11.43,2.65,3.74,6.61,6.22,11.13,6.99,.99,.17,1.98,.25,2.96,.25,1.11,0,2.2-.12,3.27-.34,2.25-.45,4.4-1.34,6.35-2.67l17.35-9.96c.33-.18,.63-.39,.94-.59,2.04-1.31,3.74-2.96,5.07-4.85,1.78-2.54,2.89-5.47,3.24-8.53Zm22.49-6.96c-1.58-.48-2.95-1.15-4.13-1.92-1.35-.88-2.46-1.88-3.35-2.86l.99-.48,2.45-1.19c.81,.78,1.67,1.48,2.51,2.05,.36,.25,.64,.52,.87,.8,.69,.87,.83,1.84,.81,2.56-.02,.61-.15,1.03-.15,1.03Zm-12.52-18.99c.53-11.19,12.23-15.72,12.23-15.72l16.35-5.64c.28,.81-.45,1.83-1.95,2.94-2.55,1.9-7.34,4.08-13.16,6.05-6.64,3.3-9.21,7.17-9.94,10.67-.16,.78-.23,1.54-.24,2.27,0,.78,.06,1.54,.18,2.24l-2.03,.98-1.11,.54c-.15-.76-.24-1.49-.3-2.2-.06-.73-.07-1.44-.04-2.12Zm-50.67,20.28l11.92-8.58s9.72-6.51,18.07-1.69c.59,.34,1.16,.74,1.73,1.2,.58,.47,1.16,1.01,1.71,1.62l-1.24,.6-2.26,1.09c-.62-.52-1.33-1.01-2.14-1.43-.7-.36-1.48-.67-2.35-.88-3.16-.8-7.42-.41-13.07,2.7-3.93,2.61-7.65,5.03-10.34,6.31-.09,.04-.17,.07-.25,.11-1.93,.88-3.3,1.14-3.77,.39l1.99-1.44Zm5.27,28.54c-.03,.39-.15,.67-.15,.67-14.15-1.15-14.79-12.62-14.79-12.62,.51,1.11,1.04,2.08,1.59,2.95,3.03,4.79,6.64,6.15,10.2,6.58,2.82,.34,3.21,1.62,3.15,2.42Zm20.79-18.42l-4.48,2.57-1.51,.87-11.62,6.67-.44,.28c-1.36,.96-3.01,1.34-4.65,1.06-1.64-.28-3.07-1.18-4.04-2.54-.96-1.36-1.34-3.01-1.06-4.65,.28-1.64,1.18-3.07,2.57-4.06l7.51-5.42,4.33-3.12,4.13-2.98,2.39-1.72c1.66-.85,3.55-1.04,5.36-.52,.13,.04,.25,.08,.37,.12l-5.45,2.64c-1.9,.92-3.02,2.79-3.08,4.77-.03,.85,.14,1.72,.54,2.54,.57,1.19,1.52,2.07,2.63,2.58,.72,.33,1.51,.51,2.31,.51,.3,0,.61-.04,.91-.09,.49-.09,.98-.23,1.46-.46l4.96-2.4c-.64,1.37-1.7,2.56-3.13,3.35Zm6.71-11.46c-1.11,.53-2.17,1.02-3.16,1.48-.17,.08-.33,.16-.5,.23-1.41,.65-2.65,1.22-3.67,1.68-1.45,.66-2.44,1.09-2.81,1.24-1.02,.41-1.67,.99-2.09,1.57-.76,1.04-.78,2.06-.78,2.06-1.79-2.29-1.22-4-.26-5.12,.88-1.03,2.09-1.56,2.09-1.56l5.29-2.53,.6-.29,3.33-1.59,.49-.23,2.2-1.05,1.13-.54,2.59-1.24,1.09-.52,2.61-1.25,4.08-1.95,2.76-1.32,.95-.45,2.74-1.31,.98-.47,2.14-1.02,.52-.25,3.16-1.51,.68-.33,4.23-2.02,.67-.32c.32,.42-.02,1.08-.87,1.9-.63,.62-1.55,1.33-2.69,2.11-.3,.2-.61,.41-.94,.63-.12,.08-.23,.15-.35,.23-.96,.61-2.02,1.26-3.17,1.93-.11,.06-.22,.13-.33,.19-.7,.41-1.43,.82-2.19,1.24-.28,.16-.57,.32-.86,.48-.87,.48-1.77,.97-2.69,1.45-.29,.16-.59,.31-.89,.47-.89,.47-1.79,.93-2.69,1.4-1.18,.61-2.37,1.21-3.56,1.8-.85,.42-1.69,.84-2.53,1.26-.37,.18-.74,.36-1.11,.54-.85,.42-1.69,.83-2.52,1.22-.37,.18-.74,.36-1.11,.53-.72,.34-1.42,.68-2.1,1-.16,.08-.32,.15-.48,.23Zm2.42,11.55c-.39-.2-.7-.64-.7-1.52,0-.11,0-.22,.01-.35,.1-1.14,.12-2.62,.03-4.16l2.25-1.09,1.17-.57c.1,1.36,.03,2.93-.31,4.64-.2,.98-.48,2-.9,3.06,0,0-.89,.32-1.55-.01Z" fill="#140f11"/><path d="M453.38,341.12c-.15-.12-.3-.25-.45-.36l-3.33-2.4-15.53-11.21-.28-.16c-4.27-2.38-9.22-2.96-13.92-1.63-1.87,.53-3.6,1.35-5.17,2.39-.58,.38-1.13,.81-1.65,1.25-.59,.5-1.15,1.04-1.68,1.62l-1.17-.57-2.59-1.26-4.74-2.3-2.72-1.32-1.04-.5c.13-.74,.21-1.49,.26-2.23,.04-.71,.05-1.41,.02-2.12-.1-2.48-.62-4.94-1.62-7.29-2.17-5.12-6.2-9.09-11.35-11.17l-.31-.11-20.73-6.98-5.51-1.86c.46,1.55,.87,3.11,1.24,4.68,.26,1.08,.49,2.17,.7,3.25,.3,1.5,.57,3.01,.79,4.53l19.84,6.69c.87,.37,1.68,.86,2.39,1.44,1.07,.87,1.94,1.97,2.57,3.23,.1,.19,.19,.38,.28,.58,.3,.7,.5,1.42,.63,2.15l-3.44-1.67c-.63-.3-1.29-.47-1.94-.53-1.12-.09-2.24,.17-3.2,.72-.91,.53-1.68,1.33-2.17,2.34-1.13,2.33-.45,5.05,1.47,6.62,.32,.26,.68,.5,1.07,.69l3.77,1.83c-1.79,1.13-3.92,1.69-6.07,1.51-.98-.08-1.96-.3-2.91-.69l-.32-.13-11.5-3.07c-.13,1.35-.29,2.7-.49,4.05-.14,.95-.29,1.9-.46,2.84-.24,1.32-.51,2.64-.81,3.96l9.81,2.62c2.43,.94,4.93,1.38,7.39,1.39,1.29,0,2.56-.13,3.81-.36,3.28-.6,6.39-1.98,9.03-4.02,1.13-.87,2.17-1.87,3.11-2.98l.96,.47,2.77,1.34,4.73,2.29,2.68,1.29,1.12,.54c-.2,1.49-.21,2.99-.04,4.46,.35,3.06,1.45,5.99,3.24,8.53,1.38,1.95,3.15,3.66,5.29,4.98,.24,.15,.47,.31,.72,.45l17.35,9.96c1.94,1.33,4.1,2.22,6.35,2.67,1.07,.21,2.17,.33,3.27,.34,.98,0,1.97-.08,2.96-.25,4.52-.77,8.47-3.25,11.13-6.99,2.45-3.46,3.43-7.51,3.08-11.43-.41-4.66-2.72-9.12-6.7-12.15Zm-37.72-10.85c.57-.46,1.15-.86,1.73-1.2,8.35-4.82,18.07,1.69,18.07,1.69l12.16,8.76,1.75,1.26c-.45,.71-1.7,.52-3.47-.25-.19-.08-.37-.16-.57-.26-2.7-1.28-6.41-3.69-10.33-6.3-5.65-3.11-9.91-3.5-13.07-2.7-.86,.22-1.64,.52-2.35,.88-.81,.42-1.52,.91-2.14,1.43l-2.26-1.09-1.24-.6c.56-.61,1.13-1.15,1.71-1.62Zm-32.42-23.59c-5.83-1.97-10.62-4.15-13.17-6.05-1.49-1.11-2.23-2.12-1.94-2.93l16.35,5.64s11.7,4.53,12.23,15.72c.03,.68,.02,1.39-.04,2.12-.05,.71-.15,1.44-.3,2.2l-1.11-.54-2.02-.98c.12-.7,.18-1.45,.18-2.24,0-.73-.08-1.49-.24-2.28-.73-3.5-3.3-7.37-9.94-10.67Zm5.08,29.44c-1.18,.77-2.55,1.44-4.13,1.92,0,0-.13-.42-.15-1.03-.02-.72,.12-1.7,.81-2.56,.23-.28,.51-.56,.87-.8,.84-.57,1.69-1.26,2.51-2.05l2.45,1.19,.99,.48c-.89,.99-2,1.99-3.35,2.86Zm23.86,13.42c-.66,.33-1.54,0-1.54,0-.42-1.06-.7-2.08-.9-3.06-.35-1.71-.41-3.27-.31-4.64l1.17,.57,2.25,1.09c-.1,1.53-.07,3.02,.03,4.16,.01,.13,.01,.24,.01,.35,0,.89-.31,1.33-.71,1.53Zm2.42-11.55c-.16-.08-.32-.15-.48-.23-.68-.32-1.38-.66-2.1-1-.37-.18-.74-.35-1.11-.53-.83-.4-1.67-.81-2.52-1.22-.37-.18-.74-.36-1.11-.54-.84-.41-1.68-.83-2.53-1.26-1.19-.59-2.38-1.2-3.56-1.8-.91-.47-1.81-.93-2.69-1.4-.3-.16-.59-.31-.89-.47-.92-.49-1.82-.97-2.69-1.45-.29-.16-.58-.32-.86-.48-.75-.42-1.48-.83-2.19-1.24-.11-.06-.22-.13-.33-.19-1.15-.67-2.21-1.32-3.17-1.93-.12-.08-.23-.15-.35-.23-.33-.21-.64-.42-.94-.63-1.14-.78-2.06-1.49-2.69-2.11-.85-.82-1.19-1.47-.87-1.9l.67,.32,4.23,2.02,.68,.33,3.16,1.51,.52,.25,2.14,1.02,.98,.47,2.74,1.31,.95,.45,2.76,1.32,4.08,1.95,2.61,1.25,1.09,.52,2.59,1.24,1.13,.54,2.2,1.05,.49,.23,3.33,1.59,.6,.29,5.29,2.53s1.21,.53,2.1,1.56c.96,1.12,1.53,2.83-.26,5.12,0,0-.01-1.02-.78-2.06-.42-.58-1.08-1.16-2.09-1.57-.37-.15-1.36-.59-2.81-1.24-1.02-.46-2.26-1.03-3.67-1.68-.16-.08-.33-.15-.5-.23-.98-.46-2.04-.95-3.15-1.48Zm24.77,21.85l-.44-.28-11.62-6.67-1.27-.73-4.73-2.71c-1.43-.8-2.49-1.99-3.13-3.35l4.96,2.4c.47,.23,.96,.37,1.45,.46,.3,.05,.61,.09,.91,.09,.8,0,1.59-.18,2.31-.51,1.11-.51,2.06-1.39,2.63-2.58,.4-.82,.57-1.69,.54-2.54-.06-1.97-1.18-3.85-3.08-4.77l-5.45-2.64c.12-.04,.24-.09,.37-.12,1.81-.51,3.7-.32,5.36,.52l2.39,1.72,4.12,2.98,4.56,3.3,7.27,5.25c1.39,.99,2.29,2.42,2.57,4.06,.28,1.64-.1,3.29-1.06,4.65-.96,1.36-2.4,2.26-4.04,2.54-1.64,.28-3.29-.1-4.65-1.06Zm2.88,8.7s-.13-.28-.15-.67c-.05-.8,.33-2.08,3.15-2.42,3.56-.43,7.17-1.79,10.2-6.58,.55-.87,1.08-1.84,1.59-2.95,0,0-.64,11.47-14.79,12.62Z" fill="#140f11"/><path d="M188.56,330.12c.13,.95,.28,1.9,.44,2.85,.23,1.33,.5,2.65,.8,3.96,.29,1.31,.62,2.62,.98,3.92,.43,1.56,.89,3.12,1.4,4.66,.97,2.89,2.1,5.73,3.36,8.5,8.46,18.49,23.48,34.07,43.57,42.89,20.36,8.94,42.31,9.35,61.85,2.8,2.86-.96,5.66-2.07,8.4-3.32,16-7.31,29.83-19.52,38.99-35.68,1.44-2.55,2.77-5.19,3.97-7.93,1.72-3.91,3.11-7.89,4.21-11.89,.36-1.3,.69-2.61,.98-3.92,.3-1.32,.56-2.64,.79-3.97,.17-.95,.32-1.9,.45-2.85,.19-1.35,.34-2.7,.47-4.05,.13-1.37,.22-2.74,.28-4.1,.2-4.54,.03-9.07-.48-13.54-.17-1.5-.39-2.99-.64-4.48-.26-1.53-.56-3.05-.9-4.56-.25-1.1-.52-2.2-.81-3.29-.07-.28-.14-.55-.22-.83-.35-1.26-.73-2.5-1.14-3.74-.48-1.47-.99-2.92-1.55-4.36-1.16-3-2.5-5.93-3.99-8.78-.72-1.37-1.47-2.73-2.26-4.06-1.26-2.13-2.61-4.21-4.06-6.23-.78-1.09-1.58-2.16-2.42-3.21-1.4-1.78-2.89-3.5-4.44-5.17-.99-1.06-2-2.1-3.05-3.12-2.52-2.45-5.2-4.76-8.04-6.91-5.25-3.97-11.04-7.4-17.33-10.17-13.04-5.73-26.74-7.95-40.04-7.09-1.35,.09-2.7,.21-4.05,.36-15.4,1.73-30.11,7.62-42.47,17-2.84,2.15-5.55,4.49-8.11,7-.99,.97-1.97,1.96-2.91,2.98-4.11,4.44-7.79,9.37-10.96,14.75-.74,1.25-1.46,2.53-2.14,3.83-.9,1.73-1.75,3.49-2.54,5.3-.51,1.16-.99,2.34-1.44,3.51-.56,1.44-1.08,2.89-1.56,4.35-.05,.14-.1,.29-.14,.43-.37,1.16-.72,2.33-1.04,3.5-.06,.21-.11,.42-.16,.63-.29,1.09-.56,2.19-.81,3.29-.34,1.52-.64,3.04-.89,4.56-.25,1.49-.47,2.98-.64,4.48-.52,4.53-.67,9.05-.47,13.54,.06,1.37,.15,2.74,.28,4.1,.13,1.36,.29,2.71,.48,4.05Zm21.85,34.61c-2.97-3.94-5.56-8.13-7.75-12.51,12.13-3.54,24.29-9.64,35.49-18.28,2.09-1.62,4.11-3.29,6.04-5.01,1.19-1.05,2.34-2.13,3.47-3.22,1.19-1.15,2.34-2.32,3.46-3.5,.89-.94,1.76-1.89,2.6-2.85,1.19-1.35,2.33-2.72,3.44-4.11,1.06-1.33,2.08-2.68,3.06-4.04,3.43-4.78,6.36-9.73,8.77-14.76,.64-1.34,1.24-2.69,1.81-4.04,.41-.99,.82-1.98,1.19-2.97,.13-.36,.26-.71,.39-1.07,.34-.95,.67-1.91,.98-2.86,.43-1.35,.83-2.7,1.19-4.05,.13-.49,.26-.98,.38-1.47,.21-.86,.4-1.72,.58-2.57,.72-3.42,1.19-6.83,1.4-10.2,5.07,1.25,10.16,2.95,15.2,5.07-.67,1.63-1.38,3.33-2.12,5.1-.55,1.31-1.12,2.66-1.71,4.04-.56,1.31-1.13,2.66-1.73,4.05-.4,.94-.81,1.9-1.23,2.87-.57,1.32-1.15,2.66-1.75,4.04-.57,1.32-1.17,2.67-1.77,4.04-2.03,4.61-4.22,9.52-6.59,14.75-.6,1.33-1.21,2.68-1.84,4.04-.61,1.33-1.23,2.68-1.86,4.06-.43,.94-.87,1.9-1.32,2.86-.61,1.33-1.24,2.68-1.87,4.04-.62,1.33-1.24,2.68-1.88,4.04-7.55,16.18-16.49,34.74-27.02,55.86-11.44-5.57-21.24-12.93-28.99-21.34Zm71.8,31.53c-11.44-.01-23.5-2.25-35.33-6.9,8.67-22.7,16.49-42.32,23.44-59.15,.56-1.36,1.11-2.7,1.66-4.02,0,0,0-.02,0-.02,.57-1.37,1.13-2.71,1.68-4.04,.4-.96,.8-1.92,1.2-2.86,.23-.54,.45-1.06,.67-1.59,.35-.82,.7-1.65,1.04-2.46,.58-1.37,1.15-2.71,1.72-4.04,2.24-5.25,4.37-10.17,6.38-14.75,.61-1.38,1.2-2.72,1.78-4.04,.61-1.38,1.21-2.73,1.8-4.04,.44-.97,.86-1.93,1.29-2.87,.63-1.39,1.23-2.73,1.83-4.04,.63-1.39,1.25-2.74,1.85-4.04,.6-1.31,1.19-2.58,1.76-3.81,5.39,2.47,10.45,5.31,15.11,8.5-.03,.03-.06,.07-.1,.11-.46,.48-.91,.97-1.35,1.47-.46,.51-.91,1.03-1.35,1.56-.42,.5-.84,1.01-1.25,1.53-.29,.37-.58,.74-.87,1.11-.14,.18-.28,.36-.41,.54-.57,.76-1.14,1.54-1.69,2.33-.34,.49-.67,.99-1,1.49-.41,.62-.81,1.25-1.21,1.89-.27,.43-.53,.87-.79,1.31-.41,.68-.81,1.38-1.2,2.08-.02,.03-.04,.07-.05,.1-.35,.64-.7,1.28-1.04,1.93-.78,1.5-1.53,3.04-2.23,4.6-.48,1.07-.94,2.14-1.38,3.24-.5,1.24-.97,2.51-1.43,3.78-.07,.21-.15,.42-.23,.63-.39,1.12-.75,2.26-1.1,3.41-.04,.12-.08,.25-.11,.37-.36,1.21-.71,2.43-1.03,3.67-.04,.15-.07,.3-.11,.44-.2,.8-.4,1.61-.58,2.42-.08,.35-.16,.69-.23,1.04-.21,.99-.42,1.99-.61,3-.06,.35-.12,.7-.18,1.05-.17,.99-.33,1.99-.48,2.99-1.18,8.12-1.46,16.65-.71,25.41,1.18,13.76,4.77,26.54,10.16,37.68-4.99,1.5-10.12,2.51-15.34,3.02Zm61.97-39.97c-9.01,15.73-22.75,27.43-38.6,34.08-6.47-11.29-10.8-24.8-12.07-39.54-.61-7.07-.47-13.97,.33-20.59,.13-1.05,.26-2.09,.42-3.13,.05-.3,.1-.6,.15-.91,.18-1.07,.37-2.14,.58-3.19,.06-.28,.11-.57,.17-.85,.2-.98,.43-1.94,.66-2.9,0-.04,.02-.07,.03-.11,.34-1.39,.71-2.76,1.11-4.12,.03-.1,.06-.2,.09-.29,.06-.2,.12-.4,.18-.6,.4-1.31,.83-2.6,1.28-3.87,.02-.05,.04-.1,.05-.15,.35-.98,.72-1.96,1.11-2.92,.11-.26,.22-.52,.33-.79,.38-.92,.77-1.83,1.18-2.72,.03-.06,.06-.13,.09-.19,.22-.48,.45-.95,.68-1.43,.02-.05,.05-.1,.07-.16,.33-.68,.67-1.36,1.02-2.03,.31-.59,.63-1.17,.95-1.75,.12-.21,.23-.42,.35-.63,.21-.37,.43-.74,.64-1.11,.05-.09,.11-.18,.16-.27,.47-.79,.96-1.57,1.45-2.33,.25-.38,.49-.76,.75-1.13,.3-.44,.61-.88,.92-1.32,.38-.54,.77-1.06,1.16-1.59,.43-.57,.87-1.14,1.32-1.7,.4-.5,.81-1,1.23-1.48,.46-.54,.93-1.07,1.4-1.59,.11-.12,.22-.25,.34-.37,5.84,4.39,10.99,9.3,15.38,14.56,.19,.22,.38,.45,.56,.67,.7,.85,1.38,1.71,2.03,2.57,.04,.06,.08,.12,.13,.17,.46,.62,.92,1.24,1.36,1.87,.45,.64,.89,1.29,1.32,1.93,.13,.2,.27,.4,.4,.6,.43,.66,.86,1.33,1.26,2,.13,.21,.24,.42,.37,.62,0,0,0,.02,.01,.03,.27,.45,.54,.9,.79,1.35,.22,.39,.43,.78,.65,1.18,.59,1.08,1.15,2.16,1.68,3.25,.04,.08,.08,.16,.12,.24,.15,.31,.29,.62,.43,.93,.67,1.44,1.28,2.9,1.84,4.36,.1,.26,.19,.52,.29,.79,.46,1.26,.89,2.53,1.27,3.8,.36,1.21,.68,2.42,.96,3.63,.07,.32,.16,.63,.23,.95,.26,1.19,.47,2.39,.65,3.58,.22,1.44,.39,2.88,.5,4.31,.48,6.17-.07,12.32-1.76,18.25Zm.71-78.73s.01,.03,.02,.04c1.68,3.06,3.16,6.23,4.43,9.48,.52,1.32,.99,2.66,1.44,4.01,.44,1.34,.85,2.69,1.22,4.05,.27,.98,.52,1.97,.75,2.96,.02,.08,.04,.16,.06,.23,.31,1.33,.58,2.68,.82,4.03,.2,1.12,.38,2.25,.53,3.38,.05,.37,.09,.73,.13,1.1,.42,3.56,.62,7.17,.56,10.79-.02,1.02-.06,2.04-.11,3.07-.07,1.36-.18,2.73-.33,4.09-.14,1.34-.33,2.69-.54,4.03-.15,.95-.31,1.89-.5,2.84-.26,1.32-.55,2.63-.88,3.94-.32,1.3-.68,2.6-1.07,3.89-.22,.73-.45,1.46-.69,2.19-.03-.8-.08-1.61-.14-2.41-.11-1.43-.27-2.87-.47-4.3-.21-1.46-.47-2.93-.78-4.39-.22-1.06-.47-2.11-.74-3.17-.4-1.54-.86-3.07-1.37-4.59-.13-.4-.27-.8-.42-1.21-.5-1.43-1.05-2.84-1.65-4.25-.18-.42-.36-.84-.55-1.25-.47-1.05-.96-2.1-1.47-3.14-.2-.4-.41-.8-.61-1.2-.34-.65-.69-1.31-1.05-1.95-.18-.32-.35-.63-.53-.95-.19-.34-.39-.68-.59-1.01-.5-.85-1.02-1.69-1.55-2.53-.11-.17-.22-.33-.32-.5-.33-.5-.66-1.01-1-1.51-.24-.35-.48-.7-.73-1.05-.36-.51-.72-1.01-1.09-1.51-.46-.62-.92-1.24-1.39-1.85-.84-1.08-1.7-2.15-2.6-3.2-4.33-5.1-9.33-9.86-14.93-14.15,4.17-3.9,8.79-7.09,13.76-9.44,2.86-1.35,5.84-2.43,8.92-3.2,2.01,2.76,3.83,5.65,5.47,8.63Zm-35.25-33.52c4.54,2.21,8.79,4.79,12.72,7.7,3.52,2.6,6.79,5.47,9.78,8.55,.16,.16,.32,.33,.47,.49,1.53,1.61,3,3.27,4.38,4.99-2.49,.64-4.9,1.49-7.26,2.49-.46,.19-.91,.39-1.36,.6-.32,.15-.65,.28-.97,.43-5.1,2.46-9.86,5.74-14.18,9.72-5.04-3.52-10.53-6.65-16.4-9.34,6.86-14.55,11.17-22.63,12.81-25.63Zm-5.71-2.51c-1.09,3.24-4.12,11.87-10.19,26.76-5.53-2.33-11.12-4.14-16.71-5.45-.03-9.56-2.21-18.71-6.68-26.8,11.15-.59,22.58,1.15,33.58,5.49Zm-88.48,20.29c.2-.22,.4-.44,.61-.65,3.02-3.2,6.28-6.13,9.74-8.76,11.78-8.97,25.84-14.54,40.56-16.05,4.36,7.7,6.44,16.44,6.41,25.58-17.34-3.29-34.38-1.81-48.85,3.82-1.52,.59-3.02,1.23-4.48,1.92-.69,.32-1.36,.65-2.04,.99-4.78,2.42-9.2,5.32-13.16,8.71,3.16-5.72,6.94-10.91,11.21-15.55Zm-20.91,46.73c.08-.78,.17-1.55,.27-2.33,.09-.72,.2-1.44,.31-2.16,.1-.67,.2-1.34,.32-2,.25-1.36,.54-2.71,.86-4.07,.11-.46,.23-.93,.34-1.39,.13-.5,.24-.99,.38-1.49,.28-1.02,.58-2.04,.9-3.05,.02-.03,.04-.06,.06-.1,.16-.26,.33-.51,.5-.77,.82-1.28,1.7-2.52,2.63-3.72,1.42-1.82,2.95-3.54,4.6-5.16,2.65-2.6,5.59-4.93,8.76-6.98,15.39-9.94,36.44-13.41,58.13-9.08-.28,3.69-.89,7.43-1.82,11.18-.17,.7-.36,1.4-.56,2.11-.18,.64-.37,1.29-.57,1.93-.22,.71-.45,1.41-.69,2.12-.22,.65-.45,1.29-.69,1.93-.09,.25-.18,.5-.27,.74-.27,.71-.55,1.41-.85,2.11-.3,.72-.62,1.44-.94,2.16-.28,.63-.57,1.25-.87,1.88-.65,1.36-1.35,2.7-2.08,4.04-1.64,3-3.49,5.95-5.54,8.83-1.46,2.05-3.01,4.06-4.66,6.03-.75,.9-1.53,1.78-2.32,2.66-.3,.33-.6,.67-.91,1-.95,1.02-1.92,2.02-2.92,3.01-.06,.06-.12,.12-.18,.18-.73,.72-1.48,1.42-2.23,2.12-1.04,.96-2.09,1.91-3.18,2.83-.33,.28-.67,.56-1,.84-.76,.63-1.53,1.25-2.31,1.86-.17,.13-.33,.26-.49,.39-12.01,9.28-25.26,15.31-38.27,18.09-.64-1.73-1.21-3.48-1.74-5.25-.38-1.29-.74-2.59-1.06-3.9-.32-1.31-.6-2.63-.85-3.95-.18-.94-.35-1.89-.49-2.83-.21-1.34-.37-2.69-.5-4.05-.14-1.36-.24-2.73-.31-4.1-.01-.22-.02-.45-.03-.67-.05-1.1-.07-2.2-.07-3.3,0-2.56,.11-5.14,.36-7.71Z" fill="#140f11"/></g><g><path d="M136.64,342.42l-2.25,1.09c.1,1.53,.07,3.02-.03,4.16-.01,.13-.01,.24-.01,.35,0,.88,.31,1.32,.7,1.52,.66,.34,1.55,.01,1.55,.01,.42-1.06,.7-2.08,.9-3.06,.35-1.71,.41-3.27,.31-4.64l-1.17,.57Z" fill="#fff"/><path d="M101.65,340.38c.08-.04,.16-.07,.25-.11,2.7-1.28,6.42-3.69,10.34-6.31,5.65-3.11,9.91-3.5,13.07-2.7,.86,.22,1.64,.52,2.35,.88,.81,.42,1.52,.91,2.14,1.43l2.26-1.09,1.24-.6c-.56-.61-1.13-1.15-1.71-1.62-.57-.46-1.15-.86-1.73-1.2-8.35-4.82-18.07,1.69-18.07,1.69l-11.92,8.58-1.99,1.44c.48,.75,1.85,.49,3.77-.39Z" fill="#fff"/><path d="M162.76,303.33s-11.7,4.53-12.23,15.72c-.03,.68-.02,1.39,.04,2.12,.05,.71,.15,1.44,.3,2.2l1.11-.54,2.03-.98c-.12-.7-.19-1.45-.18-2.24,0-.73,.08-1.49,.24-2.27,.73-3.5,3.3-7.37,9.94-10.67,5.82-1.97,10.61-4.15,13.16-6.05,1.5-1.11,2.23-2.13,1.95-2.94l-16.35,5.64Z" fill="#fff"/><path d="M158.13,322.04l-3.16,1.51-.52,.25-2.14,1.02-.98,.47-2.74,1.31-.95,.45-2.76,1.32-4.08,1.95-2.61,1.25-1.09,.52-2.59,1.24-1.13,.54-2.2,1.05-.49,.23-3.33,1.59-.6,.29-5.29,2.53s-1.21,.53-2.09,1.56c-.96,1.12-1.53,2.83,.26,5.12,0,0,.01-1.02,.78-2.06,.42-.58,1.08-1.16,2.09-1.57,.37-.15,1.36-.59,2.81-1.24,1.02-.46,2.26-1.03,3.67-1.68,.16-.08,.33-.15,.5-.23,.99-.46,2.04-.96,3.16-1.48,.16-.08,.32-.15,.48-.23,.68-.32,1.38-.66,2.1-1,.37-.18,.74-.35,1.11-.53,.83-.4,1.67-.81,2.52-1.22,.37-.18,.74-.36,1.11-.54,.84-.41,1.68-.83,2.53-1.26,1.19-.59,2.38-1.2,3.56-1.8,.91-.47,1.81-.94,2.69-1.4,.3-.16,.59-.31,.89-.47,.92-.49,1.82-.97,2.69-1.45,.29-.16,.58-.32,.86-.48,.75-.42,1.48-.83,2.19-1.24,.11-.06,.22-.13,.33-.19,1.15-.67,2.21-1.32,3.17-1.93,.12-.08,.23-.15,.35-.23,.33-.21,.64-.42,.94-.63,1.14-.78,2.06-1.49,2.69-2.11,.85-.82,1.19-1.47,.87-1.9l-.67,.32-4.23,2.02-.68,.33Z" fill="#fff"/><path d="M161.52,333.64c-.84-.57-1.69-1.26-2.51-2.05l-2.45,1.19-.99,.48c.89,.99,2,1.99,3.35,2.86,1.18,.77,2.55,1.44,4.13,1.92,0,0,.13-.42,.15-1.03,.02-.72-.12-1.7-.81-2.56-.23-.29-.51-.56-.87-.8Z" fill="#fff"/><path d="M122.63,348.96c-.3,.05-.61,.09-.91,.09-.8,0-1.59-.18-2.31-.51-1.11-.51-2.06-1.39-2.63-2.58-.4-.82-.57-1.69-.54-2.54,.06-1.97,1.18-3.85,3.08-4.77l5.45-2.64c-.12-.04-.24-.09-.37-.12-1.81-.51-3.7-.32-5.36,.52l-2.39,1.72-4.13,2.98-4.33,3.12-7.51,5.42c-1.39,.99-2.29,2.42-2.57,4.06-.28,1.64,.1,3.29,1.06,4.65,.96,1.36,2.4,2.26,4.04,2.54,1.64,.28,3.29-.1,4.65-1.06l.44-.28,11.62-6.67,1.51-.87,4.48-2.57c1.43-.8,2.49-1.99,3.13-3.35l-4.96,2.4c-.47,.23-.96,.38-1.46,.46Z" fill="#fff"/><path d="M388.24,331.6c-.81,.78-1.67,1.48-2.51,2.05-.36,.25-.64,.52-.87,.8-.69,.87-.83,1.84-.81,2.56,.02,.61,.15,1.03,.15,1.03,1.58-.48,2.95-1.15,4.13-1.92,1.35-.88,2.46-1.88,3.35-2.86l-.99-.48-2.45-1.19Z" fill="#fff"/><path d="M393.19,317.35c.16,.78,.23,1.54,.24,2.28,0,.78-.06,1.53-.18,2.24l2.02,.98,1.11,.54c.15-.76,.24-1.49,.3-2.2,.06-.73,.07-1.44,.04-2.12-.53-11.19-12.23-15.72-12.23-15.72l-16.35-5.64c-.28,.81,.45,1.82,1.94,2.93,2.55,1.9,7.34,4.08,13.17,6.05,6.64,3.3,9.21,7.17,9.94,10.67Z" fill="#fff"/><path d="M444.03,360.9c1.64-.28,3.07-1.18,4.04-2.54,.96-1.36,1.34-3.01,1.06-4.65-.28-1.64-1.18-3.07-2.57-4.06l-7.27-5.25-4.56-3.3-4.12-2.98-2.39-1.72c-1.66-.85-3.55-1.04-5.36-.52-.13,.04-.25,.08-.37,.12l5.45,2.64c1.9,.92,3.02,2.79,3.08,4.77,.03,.85-.14,1.72-.54,2.54-.57,1.19-1.52,2.07-2.63,2.58-.72,.33-1.51,.51-2.31,.51-.3,0-.61-.04-.91-.09-.49-.09-.98-.23-1.45-.46l-4.96-2.4c.64,1.37,1.7,2.56,3.13,3.35l4.73,2.71,1.27,.73,11.62,6.67,.44,.28c1.36,.96,3.01,1.34,4.65,1.06Z" fill="#fff"/><path d="M417.45,333.58c.62-.52,1.33-1.01,2.14-1.43,.7-.36,1.48-.67,2.35-.88,3.16-.8,7.42-.41,13.07,2.7,3.92,2.61,7.64,5.02,10.33,6.3,.2,.09,.38,.17,.57,.26,1.76,.77,3.02,.96,3.47,.25l-1.75-1.26-12.16-8.76s-9.72-6.51-18.07-1.69c-.59,.34-1.16,.74-1.73,1.2-.58,.47-1.15,1.01-1.71,1.62l1.24,.6,2.26,1.09Z" fill="#fff"/><path d="M412.86,343.51l-2.25-1.09-1.17-.57c-.1,1.36-.03,2.93,.31,4.64,.2,.98,.48,2,.9,3.06,0,0,.88,.32,1.54,0,.4-.2,.71-.64,.71-1.53,0-.11,0-.22-.01-.35-.1-1.14-.12-2.62-.03-4.16Z" fill="#fff"/><path d="M421.93,341.39c1.45,.66,2.44,1.09,2.81,1.24,1.02,.41,1.67,.99,2.09,1.57,.76,1.04,.78,2.06,.78,2.06,1.79-2.29,1.22-4,.26-5.12-.88-1.03-2.1-1.56-2.1-1.56l-5.29-2.53-.6-.29-3.33-1.59-.49-.23-2.2-1.05-1.13-.54-2.59-1.24-1.09-.52-2.61-1.25-4.08-1.95-2.76-1.32-.95-.45-2.74-1.31-.98-.47-2.14-1.02-.52-.25-3.16-1.51-.68-.33-4.23-2.02-.67-.32c-.32,.42,.02,1.08,.87,1.9,.63,.62,1.55,1.33,2.69,2.11,.3,.2,.61,.41,.94,.63,.12,.08,.23,.15,.35,.23,.96,.61,2.02,1.26,3.17,1.93,.11,.06,.22,.13,.33,.19,.7,.41,1.43,.82,2.19,1.24,.28,.16,.57,.32,.86,.48,.87,.48,1.77,.97,2.69,1.45,.29,.16,.59,.31,.89,.47,.89,.47,1.79,.93,2.69,1.4,1.18,.61,2.37,1.21,3.56,1.8,.85,.42,1.69,.84,2.53,1.26,.37,.18,.74,.36,1.11,.54,.85,.42,1.69,.83,2.52,1.22,.37,.18,.74,.36,1.11,.53,.72,.34,1.42,.68,2.1,1,.16,.08,.32,.15,.48,.23,1.11,.53,2.17,1.02,3.15,1.48,.17,.08,.33,.16,.5,.23,1.41,.65,2.65,1.22,3.67,1.68Z" fill="#fff"/><path d="M547.02,279.82h0s-5.57-21.28-5.57-21.28c-.69-2.62-2.47-4.8-4.9-5.99-.68-.33-1.36-.67-2.05-1-6.19-14.65-12.32-29.33-18.25-43.7,1.46-2.16,1.98-4.89,1.32-7.48l-5.34-21.16c-.69-2.72-2.54-4.96-5.08-6.15-16.25-7.57-33.05-14.42-49.95-20.37-.25-.09-.5-.14-.75-.21v-.02s-9.38-2.52-12.27-11.02c-.04-.11-.08-.21-.12-.33l-10-29.13c.05-.05,.1-.1,.15-.15,1.28-1.29,1.71-3.2,1.11-4.91l-3.56-10.16c-.48-1.37-1.57-2.45-2.94-2.92-2.9-.99-5.83-1.95-8.77-2.89,.33-.08,.66-.19,.98-.34,1.13-.55,2.01-1.52,2.42-2.71l13.62-38.89s.06-.16,.06-.17l4.7-13.42c.86-2.44-.4-5.12-2.83-6.02-11-4.07-22.29-7.76-33.55-10.99-1.22-.35-2.53-.19-3.64,.43-1.11,.62-1.92,1.66-2.25,2.89l-2.68,9.83c-9.32-2.44-18.8-4.61-28.31-6.5l1.98-10.45c.48-2.56-1.19-5.03-3.74-5.54-12.54-2.48-25.29-4.47-37.89-5.93-1.26-.14-2.51,.22-3.5,1-.99,.79-1.62,1.93-1.76,3.19l-1.21,10.88c-8.35-.83-16.74-1.46-25.06-1.86l.43-11.05c.1-2.62-1.93-4.82-4.55-4.93-6.6-.27-13.19-.4-19.6-.4s-13,.13-19.6,.4c-2.62,.11-4.65,2.31-4.55,4.93l.43,11.05c-8.32,.4-16.71,1.02-25.06,1.86l-1.21-10.88c-.14-1.25-.77-2.4-1.76-3.19-.99-.79-2.25-1.14-3.5-1-12.63,1.46-25.38,3.45-37.89,5.93-2.56,.51-4.23,2.98-3.74,5.54l1.98,10.45c-9.5,1.88-18.99,4.06-28.31,6.5l-2.68-9.83c-.33-1.23-1.14-2.27-2.25-2.89-1.11-.62-2.42-.78-3.64-.43-11.28,3.24-22.57,6.94-33.55,10.99-2.43,.9-3.69,3.58-2.83,6.02l18.38,52.47c.57,1.63,1.94,2.74,3.51,3.07v.05s.29,.9-1.11,1.5c-.02,0-.04,.03-.05,.04-1.36,.45-2.73,.89-4.08,1.35-1.38,.47-2.46,1.55-2.94,2.92l-3.53,10.09c-.6,1.71-.17,3.62,1.11,4.91,.05,.05,.1,.1,.15,.15l-5.79,16.87c-.47,.16-.93,.32-1.4,.48-1.38,.47-2.46,1.55-2.94,2.92l-3.56,10.16c-.6,1.72-.17,3.62,1.11,4.91,.12,.12,.26,.22,.39,.32-1.43,.46-2.87,.91-4.29,1.38-3.2,1.05-5.58,3.76-6.21,7.07l-.89,4.65c-1.13-.98-2.24-1.95-3.35-2.92-2.57-2.25-6.16-2.91-9.36-1.72-17.03,6.34-33.95,13.62-50.3,21.63-2.43,1.19-4.21,3.37-4.9,5.99l-5.57,21.27c-.8,3.08,.04,6.34,2.16,8.64l-9.81,38.19c-.48,.23-.97,.47-1.45,.71-2.43,1.19-4.22,3.37-4.9,5.99L.3,279.82c-.92,3.5,.3,7.25,3.11,9.54,1.6,1.31,3.61,2.05,5.68,2.1l80.94,47.6c-3.52,3.18-5.86,7.4-6.67,12.16-.95,5.59,.33,11.21,3.6,15.82,3.28,4.62,8.16,7.69,13.74,8.64,1.19,.2,2.39,.3,3.58,.3h.06c4.19-.01,8.25-1.26,11.75-3.62l15.46-8.88,139.69,82.15c.74,.44,1.57,.66,2.41,.66s1.66-.22,2.4-.65l139.85-82.02,15.23,8.74c3.5,2.36,7.56,3.61,11.75,3.62h.06c1.19,0,2.4-.1,3.58-.3,5.59-.95,10.47-4.02,13.74-8.64,3.27-4.61,4.55-10.23,3.6-15.82-.79-4.66-3.07-8.81-6.45-11.95l81.6-47.86c1.78-.19,3.49-.9,4.88-2.04,2.8-2.29,4.02-6.03,3.11-9.54Zm-119.73-181.47c1.19,3.39,2.37,6.77,3.56,10.16-1.13-.39-2.26-.77-3.39-1.15,4.05,11.8,8.1,23.6,12.15,35.39-5.04-1.68-10.09-3.29-15.17-4.81-6.61-8.47-13.04-16.83-19.28-25.07,1.13,3.8,2.26,7.6,3.39,11.4,1.21,.33,2.42,.66,3.63,1,.99,3.32,1.97,6.65,2.96,9.97-7.52-2.11-15.07-4.04-22.66-5.8-.83-3.28-1.65-6.57-2.48-9.85,1.25,.29,2.51,.59,3.76,.89-2.13-8.2-4.26-16.4-6.39-24.61-1.18-.28-2.37-.56-3.55-.84-.83-3.28-1.65-6.57-2.48-9.85,5.61,1.3,11.21,2.71,16.79,4.22,6.24,8.44,12.69,17,19.33,25.68-1.27-4.04-2.55-8.08-3.82-12.12-1.17-.35-2.34-.7-3.51-1.04-1.03-3.34-2.05-6.67-3.08-10.01,6.79,1.98,13.54,4.13,20.25,6.42Zm-111.64-14.02c-1.18-.1-2.35-.19-3.53-.28-.28-3.2-.56-6.4-.84-9.6,6.95,.53,13.9,1.22,20.83,2.06,.44,3.22,.88,6.43,1.33,9.65-1.17-.14-2.34-.28-3.52-.41,1.04,8.01,2.07,16.02,3.11,24.03,1.24,.14,2.48,.29,3.72,.44,.44,3.22,.88,6.43,1.33,9.65-7.66-.93-15.34-1.69-23.02-2.28-.28-3.2-.56-6.4-.84-9.6,1.24,.1,2.49,.2,3.73,.3-.76-7.98-1.53-15.97-2.29-23.95Zm21.71-2.35c2.08-1.31,4.12-2.6,6.14-3.88,8.96,1.31,17.89,2.89,26.78,4.72,2.67,2.11,5.36,4.24,8.07,6.39,2.77,11.42,5.54,22.84,8.3,34.27-2.11,1.08-4.25,2.18-6.41,3.28-9.82-2.03-19.69-3.77-29.59-5.22-2.79-1.98-5.56-3.94-8.3-5.88-1.66-11.23-3.33-22.45-4.99-33.68Zm60.24-43.66l-2.35,11.45c-10.94-3.15-22.03-5.88-33.28-8.19-.43-.09-.86-.19-1.3-.28-.49-.1-.98-.18-1.47-.28-10.72-2.12-21.57-3.85-32.54-5.17l1.42-8.49c10.89,1.03,21.69,2.37,32.37,4,.68,.1,1.36,.2,2.03,.3,.61,.1,1.22,.2,1.83,.3,11.22,1.79,22.31,3.91,33.27,6.35ZM328.37,7.88c12.67,1.46,25.18,3.43,37.52,5.87l-2.86,15.1c-11.98-2.25-24.11-4.06-36.39-5.4l1.73-15.57Zm-3.49,31.51c.39,.04,.79,.09,1.18,.13,11.04,1.11,21.97,2.56,32.78,4.34l-1.32,10.18c-10.86-2.26-21.86-4.09-32.98-5.47-.22-.03-.45-.06-.67-.09-.23-.03-.47-.05-.7-.08-10.23-1.24-20.57-2.09-31.01-2.56l.86-8.58c10.3,.38,20.51,1.05,30.64,2.01,.41,.04,.81,.07,1.22,.11Zm-30.65-14.22c10.11,.36,20.14,.97,30.1,1.85l-.46,8.51c-10.05-1.15-20.2-1.96-30.43-2.41-.48-.02-.96-.05-1.45-.07-.45-.02-.89-.02-1.34-.04-5.63-.22-11.29-.34-16.98-.34s-11.34,.12-16.98,.34l.13-7.95c5.6-.16,11.21-.26,16.85-.26s11.26,.1,16.85,.26c.59,.02,1.19,.02,1.78,.04,.64,.02,1.29,.05,1.93,.08Zm-20.56-20.43c6.5,0,12.97,.14,19.41,.4l-.62,15.77c-6.23-.24-12.5-.36-18.79-.36s-12.56,.12-18.79,.36l-.62-15.77c6.44-.26,12.91-.4,19.41-.4Zm-19.35,32.53c.4-.01,.8-.04,1.2-.05,.37-.01,.74-.02,1.1-.03,5.66-.18,11.34-.29,17.05-.29s11.38,.1,17.04,.29l.14,8.6c-5.7-.24-11.43-.37-17.18-.37s-11.48,.13-17.18,.37c-.21,0-.42,.01-.63,.02-.23,0-.45,.03-.68,.04-10.43,.47-20.77,1.32-31.01,2.56l-.49-9.12c10.13-.97,20.35-1.64,30.64-2.02Zm-31.31-10.25c9.95-.87,19.99-1.49,30.1-1.85l.79,7.94c-10.23,.46-20.38,1.26-30.43,2.41-.47,.05-.95,.1-1.42,.15-.46,.05-.92,.12-1.39,.18-10.97,1.32-21.82,3.05-32.54,5.17l-1.25-9.66c10.68-1.63,21.48-2.97,32.37-4,.62-.06,1.24-.13,1.87-.19,.63-.06,1.27-.1,1.91-.16Zm-.22,21.55c-11.12,1.38-22.12,3.21-32.98,5.47-.24,.05-.48,.09-.71,.14-.21,.04-.41,.09-.62,.14-11.4,2.41-22.63,5.3-33.7,8.64l-2.42-11.81c11.08-2.65,22.3-4.95,33.66-6.88,.39-.07,.78-.14,1.17-.21,.43-.07,.87-.14,1.31-.21,10.81-1.78,21.74-3.24,32.78-4.34l1.52,9.05Zm-3.83-40.69l1.73,15.57c-12.27,1.35-24.41,3.15-36.39,5.4l-2.86-15.1c12.34-2.44,24.85-4.41,37.52-5.87ZM123.9,73.64l-.12-.35-4.45-12.7-.11-.31-4.49-12.82-.05-.15-4.7-13.42c10.89-4.02,21.97-7.66,33.21-10.88l3.92,14.38c-9.93,2.7-19.74,5.72-29.4,9.03,9.25-2.64,18.61-5.04,28.07-7.21,.57-.13,1.15-.27,1.72-.4,.74-.17,1.48-.32,2.22-.48,10.96-2.44,22.05-4.56,33.27-6.35l2.36,9.61c-11.25,2.3-22.34,5.04-33.28,8.19-.49,.14-.98,.27-1.47,.41-.39,.11-.78,.23-1.17,.35-8.27,2.44-16.45,5.1-24.53,8,8.22-2.46,16.53-4.71,24.93-6.77l3.74,11.57c-7.93,2.42-15.78,5.08-23.53,7.96,7.89-2.44,15.86-4.69,23.92-6.73,.17-.04,.34-.09,.52-.13,.18-.05,.37-.09,.56-.14,11.21-2.82,22.58-5.25,34.09-7.27l2.15,8.77,.09,.38-1.21-9.33c10.95-1.9,22.04-3.44,33.23-4.59,.16-.02,.31-.04,.47-.05,.16-.02,.33-.03,.49-.05,10.31-1.04,20.72-1.76,31.22-2.14l.7,7.03v.15s.13-7.21,.13-7.21c5.72-.2,11.47-.31,17.25-.31s11.52,.11,17.24,.31c.14,0,.27,0,.41,.01,.14,0,.28,.01,.42,.02,10.5,.38,20.91,1.1,31.22,2.14l-.47,8.63,.03-.17,1.4-8.36c11.2,1.15,22.28,2.69,33.23,4.59,.19,.03,.38,.06,.56,.09,.16,.03,.31,.06,.47,.09,11.51,2.02,22.88,4.45,34.09,7.27l-1.81,8.82-.2,.99,3.08-9.54c8.06,2.05,16.03,4.29,23.92,6.73-7.75-2.88-15.59-5.54-23.53-7.96-.19-.06-.37-.12-.56-.18-.21-.06-.43-.12-.64-.19-11.07-3.34-22.3-6.23-33.7-8.64l2.46-10.05c11.36,1.93,22.58,4.23,33.66,6.88,.47,.11,.94,.21,1.4,.33,.37,.09,.74,.19,1.12,.28,8.4,2.06,16.71,4.31,24.93,6.77-8.08-2.9-16.26-5.57-24.53-8l3.66-11.32c9.46,2.17,18.82,4.57,28.07,7.21-9.67-3.31-19.47-6.33-29.4-9.03l3.92-14.38c11.25,3.23,22.33,6.86,33.21,10.88l-4.7,13.42-.05,.15-4.49,12.82-.11,.31-4.45,12.7-.12,.35-4.45,12.72c-9.72-3.4-19.59-6.48-29.61-9.2-11.16-3.04-22.5-5.64-34-7.8-10.95-2.06-22.05-3.71-33.27-4.94-10.32-1.13-20.74-1.91-31.26-2.32-5.7-.22-11.43-.33-17.18-.33s-11.48,.11-17.18,.33c-10.52,.4-20.94,1.18-31.26,2.32-11.22,1.23-22.32,2.88-33.27,4.94-11.5,2.16-22.84,4.77-34,7.8-10.02,2.73-19.89,5.8-29.61,9.2l-4.45-12.72Zm170.77,33.23c1.24,.05,2.49,.1,3.73,.16,.17,3.19,.33,6.38,.5,9.58-7.73-.35-15.47-.53-23.2-.53,0-3.19,0-6.38,0-9.57,1.28,0,2.56,0,3.84,.02-.07-7.95-.15-15.9-.22-23.85-1.21,0-2.42-.01-3.63-.02,0,1.59,0,3.19,0,4.78-3.64,0-7.28,.04-10.91,.12,.12-4.78,.24-9.57,.36-14.35,14-.31,28,0,41.98,.95,.37,4.8,.74,9.59,1.11,14.39-3.6-.24-7.2-.45-10.81-.61-.08-1.6-.17-3.19-.25-4.79-1.18-.05-2.36-.1-3.53-.15,.35,7.96,.69,15.91,1.04,23.87Zm-61.09-22.38c-.24,2.39-.48,4.78-.72,7.17,6.95-.61,13.91-1.07,20.88-1.38,2.35,1.49,4.72,2.99,7.12,4.51-.19,5.57-.38,11.14-.57,16.72-2.6,1.67-5.24,3.36-7.9,5.07-9.97,.45-19.94,1.18-29.88,2.2-2.38-1.34-4.73-2.66-7.06-3.97,.43-3.21,.86-6.43,1.29-9.64,4.97-.59,9.94-1.1,14.92-1.53-.16,1.6-.32,3.2-.48,4.8,4.71-.41,9.42-.76,14.13-1.04,.16-2.39,.33-4.77,.49-7.16-7.12,.42-14.23,1-21.33,1.73-2.29-1.35-4.54-2.68-6.77-4,.75-5.61,1.5-11.23,2.25-16.84,2.56-1.88,5.1-3.75,7.61-5.59,8.99-.92,18.01-1.59,27.03-1.99,2.25,1.49,4.53,3,6.83,4.53-.11,3.19-.22,6.38-.33,9.57-4.83,.14-9.66,.36-14.48,.65,.11-1.6,.22-3.19,.33-4.79-4.46,.27-8.92,.59-13.37,.98Zm-40.36,26.41c-4.42,.73-8.84,1.52-13.24,2.37-.43,.87-.87,1.75-1.3,2.62,1.23-.24,2.46-.47,3.69-.7-.67,3.23-1.34,6.46-2,9.69-7.6,1.42-15.18,3.01-22.73,4.78,.83-3.26,1.65-6.53,2.48-9.79,1.22-.29,2.44-.57,3.67-.84,4.65-8.79,9.17-17.53,13.54-26.22-1.34,.28-2.68,.57-4.02,.86,.77-3.25,1.55-6.5,2.32-9.75,11.43-2.49,22.94-4.55,34.49-6.18-.51,3.2-1.01,6.41-1.52,9.61-1.32,.19-2.65,.38-3.97,.58,1.17,7.7,2.49,15.39,3.95,23.08,1.24-.16,2.48-.33,3.71-.48-.45,3.2-.91,6.39-1.36,9.59-7.66,.96-15.3,2.1-22.92,3.4,.61-3.22,1.23-6.44,1.84-9.66,1.23-.21,2.46-.42,3.7-.62-.11-.78-.22-1.55-.32-2.33Zm-81.94,22.94c1.19-.41,2.39-.81,3.59-1.21,2.89-8.42,5.78-16.84,8.67-25.26-1.13,.38-2.26,.76-3.39,1.15,1.18-3.36,2.36-6.73,3.53-10.09,11.54-3.95,23.19-7.44,34.93-10.46,1.82,1.07,3.67,2.14,5.55,3.23-1.28,4.91-2.57,9.83-3.85,14.74-1.42,1.1-2.85,2.22-4.29,3.33,.99,.53,1.99,1.07,3,1.6-1.28,4.91-2.57,9.83-3.85,14.74-2.93,2.25-5.88,4.52-8.85,6.82-12.98,3.34-25.86,7.2-38.61,11.56,1.19-3.39,2.37-6.77,3.56-10.16Zm162.38,307.7l-137.57-80.9c5.54-4.3,8.62-10.89,8.64-17.65l7.17-3.47c4.48,4.1,10.41,6.48,16.78,6.48h.07c2.95,0,5.85-.54,8.62-1.58l9.63-2.57c.45,1.64,.93,3.28,1.47,4.89,1.01,3.02,2.19,5.99,3.52,8.88,8.85,19.33,24.55,35.62,45.55,44.84,21.29,9.35,44.24,9.78,64.67,2.92,2.99-1,5.92-2.16,8.78-3.47,16.73-7.64,31.19-20.41,40.77-37.3,1.51-2.66,2.9-5.43,4.16-8.29,1.8-4.1,3.26-8.26,4.41-12.46l9.55,2.55c2.78,1.04,5.68,1.57,8.62,1.58h.07c6.38,0,12.3-2.39,16.78-6.48l7.17,3.47c.01,6.85,3.17,13.51,8.83,17.79l-137.69,80.75Zm-85.38-133.12c.17-1.49,.39-2.99,.64-4.48,.26-1.52,.55-3.04,.89-4.56,.25-1.1,.52-2.19,.81-3.29,.06-.21,.1-.42,.16-.63,.32-1.17,.67-2.34,1.04-3.5,.05-.14,.1-.29,.14-.43,.48-1.46,1-2.91,1.56-4.35,.46-1.17,.93-2.35,1.44-3.51,.79-1.81,1.64-3.57,2.54-5.3,.68-1.3,1.4-2.58,2.14-3.83,3.16-5.38,6.84-10.31,10.96-14.75,.95-1.02,1.92-2.01,2.91-2.98,2.57-2.51,5.28-4.85,8.11-7,12.36-9.38,27.07-15.26,42.47-17,1.34-.15,2.69-.27,4.05-.36,13.3-.86,26.99,1.36,40.04,7.09,6.29,2.76,12.08,6.2,17.33,10.17,2.84,2.15,5.53,4.46,8.04,6.91,1.04,1.02,2.06,2.06,3.05,3.12,1.55,1.67,3.03,3.39,4.44,5.17,.83,1.05,1.64,2.12,2.42,3.21,1.45,2.02,2.79,4.1,4.06,6.23,.79,1.33,1.54,2.69,2.26,4.06,1.49,2.85,2.83,5.78,3.99,8.78,.56,1.44,1.07,2.89,1.55,4.36,.41,1.24,.79,2.49,1.14,3.74,.08,.28,.14,.55,.22,.83,.29,1.09,.56,2.19,.81,3.29,.34,1.51,.64,3.03,.9,4.56,.25,1.49,.47,2.98,.64,4.48,.52,4.47,.68,8.99,.48,13.54-.06,1.37-.16,2.73-.28,4.1-.12,1.35-.28,2.7-.47,4.05-.13,.95-.28,1.9-.45,2.85-.23,1.32-.5,2.65-.79,3.97-.29,1.31-.62,2.61-.98,3.92-1.1,4-2.49,7.98-4.21,11.89-1.2,2.74-2.53,5.38-3.97,7.93-9.16,16.16-22.99,28.37-38.99,35.68-2.74,1.25-5.54,2.36-8.4,3.32-19.54,6.56-41.49,6.14-61.85-2.8-20.09-8.82-35.1-24.4-43.57-42.89-1.27-2.77-2.4-5.61-3.36-8.5-.52-1.54-.97-3.09-1.4-4.66-.36-1.3-.68-2.6-.98-3.92-.29-1.31-.57-2.64-.8-3.96-.17-.94-.31-1.89-.44-2.85-.19-1.35-.36-2.7-.48-4.05-.13-1.36-.22-2.73-.28-4.1-.2-4.49-.05-9.01,.47-13.54Zm271.79,44.84c.35,3.92-.63,7.98-3.08,11.43-2.65,3.74-6.61,6.22-11.13,6.99-.99,.17-1.98,.25-2.96,.25-1.11,0-2.2-.12-3.27-.34-2.25-.45-4.4-1.34-6.35-2.67l-17.35-9.96c-.25-.14-.48-.3-.72-.45-2.14-1.33-3.92-3.03-5.29-4.98-1.79-2.54-2.89-5.47-3.24-8.53-.17-1.48-.16-2.97,.04-4.46l-1.12-.54-2.68-1.29-4.73-2.29-2.77-1.34-.96-.47c-.94,1.11-1.98,2.11-3.11,2.98-2.64,2.05-5.75,3.42-9.03,4.02-1.25,.23-2.52,.36-3.81,.36-2.46,0-4.97-.45-7.39-1.39l-9.81-2.62c.3-1.32,.57-2.64,.81-3.96,.17-.95,.32-1.9,.46-2.84,.2-1.35,.35-2.7,.49-4.05l11.5,3.07,.32,.13c.95,.39,1.93,.61,2.91,.69,2.15,.17,4.28-.38,6.07-1.51l-3.77-1.83c-.39-.19-.75-.42-1.07-.69-1.92-1.56-2.6-4.29-1.47-6.62,.49-1.02,1.26-1.81,2.17-2.34,.96-.56,2.08-.81,3.2-.72,.66,.05,1.32,.22,1.94,.53l3.44,1.67c-.13-.73-.33-1.45-.63-2.15-.08-.2-.18-.39-.28-.58-.63-1.26-1.5-2.35-2.57-3.23-.72-.58-1.52-1.07-2.39-1.44l-19.84-6.69c-.22-1.52-.49-3.02-.79-4.53-.22-1.09-.45-2.18-.7-3.25-.37-1.57-.79-3.13-1.24-4.68l5.51,1.86,20.73,6.98,.31,.11c5.15,2.09,9.18,6.05,11.35,11.17,.99,2.35,1.52,4.81,1.62,7.29,.03,.71,.02,1.41-.02,2.12-.05,.75-.13,1.49-.26,2.23l1.04,.5,2.72,1.32,4.74,2.3,2.59,1.26,1.17,.57c.53-.58,1.08-1.12,1.68-1.62,.53-.45,1.08-.87,1.65-1.25,1.57-1.05,3.31-1.86,5.17-2.39,4.71-1.33,9.65-.76,13.92,1.63l.28,.16,15.53,11.21,3.33,2.4c.16,.11,.3,.24,.45,.36,3.98,3.03,6.28,7.48,6.7,12.15Zm-86.62-27.56l-10.07-2.69c.24-4.42,.13-8.83-.28-13.19l14.35,4.84c-1.52,.94-2.74,2.28-3.54,3.93-1.12,2.31-1.21,4.85-.46,7.11Zm167.45-40.02c-.83,.68-1.85,1.03-2.88,1.03-.12,0-.23-.01-.35-.02l-84.29,49.43-16.97-12.25c-.13-.09-.26-.17-.39-.25l-.28-.16c-5.21-2.91-11.25-3.61-16.99-1.98-3.04,.86-5.8,2.34-8.16,4.3l-7.18-3.48c.17-3.66-.48-7.35-1.95-10.82-2.59-6.11-7.4-10.85-13.55-13.34-.04-.01-.07-.03-.11-.04l-.31-.11s-.08-.03-.12-.04l-23.38-7.88c-1.55,.98-2.94,1.9-4.18,2.77-.47-1.58-.97-3.14-1.52-4.69-1.13-3.18-2.44-6.29-3.92-9.32-1.26-2.58-2.64-5.11-4.15-7.57-1.13-1.84-2.32-3.65-3.58-5.41-.81-1.14-1.66-2.26-2.53-3.36-1.07-1.35-2.18-2.68-3.33-3.97-1.75-1.97-3.6-3.88-5.54-5.7-2.02-1.9-4.13-3.72-6.34-5.44-5.75-4.48-12.15-8.33-19.14-11.4-13.64-5.99-27.96-8.31-41.86-7.41-1.42,.09-2.83,.22-4.23,.37-16.52,1.86-32.29,8.29-45.41,18.55-2.22,1.73-4.36,3.57-6.41,5.51-1.87,1.77-3.67,3.64-5.4,5.59-3.5,3.94-6.69,8.23-9.5,12.86-1.44,2.37-2.78,4.83-4.02,7.37-.53,1.09-1.05,2.18-1.54,3.3-.88,1.99-1.67,4-2.39,6.02-.31,.88-.62,1.76-.9,2.65-.23,.71-.43,1.42-.64,2.13,0,.03-.02,.06-.03,.09-.45,1.53-.87,3.06-1.23,4.59-.26,1.08-.49,2.17-.7,3.25-.3,1.51-.56,3.01-.78,4.52l-19.92,6.72c-.87,.37-1.68,.86-2.39,1.44-1.07,.87-1.94,1.97-2.57,3.23-.1,.19-.19,.38-.28,.58-.3,.7-.5,1.42-.63,2.15l3.44-1.67c.63-.3,1.29-.47,1.94-.53,1.12-.09,2.24,.17,3.2,.72,.91,.53,1.68,1.33,2.17,2.34,1.13,2.33,.45,5.05-1.47,6.62-.32,.26-.68,.5-1.07,.69l-3.77,1.83c1.79,1.13,3.92,1.69,6.07,1.51,.98-.08,1.95-.3,2.91-.69l.32-.13,11.58-3.09c.14,1.36,.31,2.71,.5,4.05,.14,.95,.29,1.9,.46,2.84,.24,1.33,.51,2.65,.81,3.96l-9.9,2.64c-2.43,.94-4.93,1.38-7.39,1.39-1.29,0-2.56-.13-3.81-.36-3.28-.6-6.39-1.98-9.03-4.02-1.13-.87-2.17-1.87-3.11-2.98l-.96,.47-2.77,1.34-4.73,2.29-2.67,1.29-1.12,.54c.2,1.49,.21,2.99,.04,4.46-.35,3.06-1.45,5.99-3.24,8.53-1.33,1.89-3.03,3.54-5.07,4.85-.31,.2-.62,.41-.94,.59l-17.35,9.96c-1.94,1.33-4.1,2.22-6.35,2.67-1.07,.21-2.17,.33-3.27,.34-.98,0-1.97-.08-2.96-.25-4.52-.77-8.47-3.25-11.13-6.99-2.45-3.46-3.43-7.51-3.08-11.43,.41-4.66,2.72-9.12,6.7-12.15,.15-.12,.3-.25,.45-.36l3.58-2.58,15.28-11.03,.28-.16c4.27-2.38,9.22-2.96,13.92-1.63,1.87,.53,3.6,1.35,5.17,2.39,.58,.38,1.13,.81,1.65,1.25,.59,.5,1.15,1.04,1.68,1.62l1.17-.57,2.59-1.26,4.74-2.3,2.72-1.32,1.04-.5c-.13-.74-.21-1.49-.26-2.23-.04-.71-.05-1.41-.02-2.12,.1-2.48,.62-4.94,1.62-7.29,2.17-5.12,6.2-9.09,11.35-11.17l.31-.11,20.73-6.98,5.48-1.85c-1.26-.88-2.67-1.83-4.26-2.83l-23.25,7.83s-.08,.03-.12,.04l-.31,.11s-.07,.03-.11,.04c-6.15,2.49-10.96,7.23-13.55,13.34-1.47,3.48-2.12,7.16-1.95,10.82l-7.18,3.48c-2.36-1.96-5.12-3.44-8.16-4.3-5.74-1.63-11.78-.92-16.99,1.99l-.28,.16c-.14,.08-.27,.16-.39,.25l-16.72,12.07L10.21,286.61c-.31,.06-.62,.1-.93,.1-1.03,0-2.05-.35-2.88-1.03-1.37-1.12-1.97-2.95-1.52-4.67l5.57-21.27c.33-1.28,1.21-2.35,2.4-2.93,1.14-.56,2.27-1.11,3.41-1.66l11.17-43.48c-.52-.17-1.01-.44-1.45-.8-1.37-1.12-1.97-2.95-1.52-4.67l5.57-21.27c.33-1.28,1.21-2.35,2.4-2.93,16.2-7.94,32.98-15.15,49.87-21.44,1.56-.58,3.32-.26,4.58,.84,1.06,.93,2.14,1.87,3.22,2.8,2.57-.9,5.22-1.81,7.96-2.71l.86-4.49c.31-1.62,1.47-2.94,3.04-3.46,10.02-3.3,20.26-6.36,30.45-9.07,1.49-.4,3.07-.01,4.21,1.02,.02,.01,.03,.03,.05,.04,.48-1.47,1.68-2.61,3.21-3,10.18-2.56,20.57-4.86,30.88-6.83,1.16-.22,2.35,.03,3.32,.66,.67-.84,1.63-1.45,2.74-1.65,17.24-3.09,34.84-5.38,52.31-6.81,1.26-.1,2.51,.33,3.44,1.18,1.66,1.53,3.34,3.07,5.03,4.61,1.36-.1,2.71-.19,4.08-.28l.08-2.37c.07-2.36,1.95-4.27,4.31-4.39,21.15-1.07,42.58-.9,63.7,.49,1.46,.1,2.73,.88,3.49,2.03,.03-.04,.06-.08,.09-.11,.94-.91,2.22-1.38,3.52-1.27,10.43,.82,20.96,1.96,31.32,3.38,2.1,.29,3.73,2,3.91,4.11l.2,2.31c8.24,1.18,16.56,2.57,24.96,4.19-.09-1.36,.43-2.7,1.44-3.63,1.07-.99,2.56-1.41,3.99-1.12,10.29,2.09,20.66,4.5,30.82,7.18,1.74,.46,3.05,1.9,3.33,3.68l.52,3.27c10.66,2.94,21.42,6.28,32.26,10.04,.06-1.21,.61-2.37,1.55-3.19,1.23-1.07,2.95-1.4,4.49-.86,16.75,5.89,33.41,12.69,49.52,20.19,1.24,.58,2.15,1.68,2.49,3.01l5.34,21.17c.43,1.7-.16,3.49-1.51,4.61-.26,.21-.54,.4-.83,.54,6.54,15.88,13.31,32.11,20.19,48.36,1.21,.58,2.42,1.17,3.63,1.76,1.19,.58,2.06,1.65,2.4,2.93l5.57,21.27c.45,1.72-.14,3.54-1.52,4.66Zm-356.97,37.31l-10.15,2.71c.75-2.26,.66-4.81-.46-7.11-.8-1.64-2.02-2.99-3.54-3.93l14.42-4.86c-.42,4.42-.51,8.83-.27,13.2Z" fill="#fff"/><path d="M185.17,102.92c2.24-.42,4.47-.82,6.71-1.2-.47-3.3-.91-6.6-1.32-9.9-1.77,3.69-3.57,7.39-5.39,11.1Z" fill="#fff"/><path d="M148.91,99.66c-3.86,1.06-7.71,2.16-11.56,3.32-.79,2.52-1.59,5.04-2.38,7.56,3.91-1.18,7.83-2.3,11.76-3.38,.73-2.5,1.45-5,2.18-7.5Z" fill="#fff"/><path d="M129.47,127.99c4.06-1.22,8.13-2.39,12.22-3.51,.72-2.48,1.44-4.96,2.16-7.43-4.02,1.1-8.02,2.25-12.02,3.45-.79,2.5-1.57,4.99-2.36,7.49Z" fill="#fff"/><path d="M370.57,115.56c-1.72-8.13-3.43-16.27-5.15-24.4-4.37-.84-8.76-1.61-13.15-2.32,1.46,8.09,2.93,16.18,4.39,24.27,4.64,.75,9.28,1.57,13.9,2.45Z" fill="#fff"/><path d="M101.98,365.45c-3.56-.43-7.17-1.79-10.2-6.58-.55-.87-1.08-1.84-1.59-2.95,0,0,.64,11.47,14.79,12.62,0,0,.13-.28,.15-.67,.05-.8-.33-2.08-3.15-2.42Z" fill="#fff"/><path d="M445.27,365.45c-2.82,.34-3.21,1.62-3.15,2.42,.03,.39,.15,.67,.15,.67,14.15-1.15,14.79-12.62,14.79-12.62-.51,1.11-1.04,2.08-1.59,2.95-3.03,4.79-6.64,6.15-10.2,6.58Z" fill="#fff"/></g></g></g></svg>